<svg id="Слой_1" data-name="Слой 1" xmlns="http://www.w3.org/2000/svg" viewBox="0 0 147.2 198.9"><title>for-4</title><path d="M568.4,527.08H550.62L537,455.25a4.8,4.8,0,0,0-4.72-3.91h-20.6a4.8,4.8,0,0,0-4.7,3.82l-10.89,52.15-7.69-40.52a4.8,4.8,0,0,0-4.72-3.91H466.23a4.8,4.8,0,0,0-4.7,3.82l-12.6,60.38H430.8a4.8,4.8,0,0,0-4.8,4.8v71.47a4.8,4.8,0,0,0,4.8,4.8H473a4.71,4.71,0,0,0,.92.09h51.33a5,5,0,0,0,.92-0.09H568.4a4.8,4.8,0,0,0,4.8-4.8V531.88a4.8,4.8,0,0,0-4.8-4.8h0Zm-89.66,71.56V581.31h41.74v17.33H478.73Zm84.87-.09H530.07V581.31h2a4.8,4.8,0,0,0,0-9.6H467.14a4.8,4.8,0,1,0,0,9.6h2v17.24H435.6V536.68h128v61.87ZM479.71,472.49l10.36,54.59H458.73l11.39-54.59h9.59Zm48.59-11.54,12.55,66.13H501.77l13.8-66.13H528.3Zm0,0" transform="translate(-426 -409.33)"/><path d="M455.62,548h-6.89a4.8,4.8,0,0,0,0,9.6h6.89a4.8,4.8,0,0,0,0-9.6h0Zm0,0" transform="translate(-426 -409.33)"/><path d="M479.33,548h-6.89a4.8,4.8,0,0,0,0,9.6h6.89a4.8,4.8,0,0,0,0-9.6h0Zm0,0" transform="translate(-426 -409.33)"/><path d="M503,548h-6.89a4.8,4.8,0,0,0,0,9.6H503a4.8,4.8,0,0,0,0-9.6h0Zm0,0" transform="translate(-426 -409.33)"/><path d="M526.76,548h-6.89a4.8,4.8,0,0,0,0,9.6h6.89a4.8,4.8,0,0,0,0-9.6h0Zm0,0" transform="translate(-426 -409.33)"/><path d="M538.78,552.77a4.8,4.8,0,0,0,4.8,4.8h6.89a4.8,4.8,0,0,0,0-9.6h-6.89a4.8,4.8,0,0,0-4.8,4.8h0Zm0,0" transform="translate(-426 -409.33)"/><path d="M501.83,419.43a16.66,16.66,0,0,1-5.89,1.09,26.43,26.43,0,0,0-26.4,26,5,5,0,0,0,4.4,5.15,4.8,4.8,0,0,0,5.19-4.78,16.86,16.86,0,0,1,16.8-16.8,26.29,26.29,0,0,0,18-7.09,4.82,4.82,0,0,0-3.26-8.36h0a4.91,4.91,0,0,0-3.34,1.35A16.66,16.66,0,0,1,501.83,419.43Z" transform="translate(-426 -409.33)"/><path d="M549.26,414.1a16.66,16.66,0,0,1-5.89,1.09,26.43,26.43,0,0,0-26.4,26,5,5,0,0,0,4.4,5.15,4.8,4.8,0,0,0,5.19-4.78,16.86,16.86,0,0,1,16.8-16.8,26.29,26.29,0,0,0,18-7.09,4.82,4.82,0,0,0-3.26-8.36h0a4.91,4.91,0,0,0-3.34,1.35A16.66,16.66,0,0,1,549.26,414.1Z" transform="translate(-426 -409.33)"/></svg>