<svg id="Слой_1" data-name="Слой 1" xmlns="http://www.w3.org/2000/svg" viewBox="0 0 365.98 338.78"><title>for-3</title><path d="M634.49,467.32a48.42,48.42,0,0,0-7.9.65V400a71.09,71.09,0,0,0-71-71H444.41a71.09,71.09,0,0,0-71,71v68a48.49,48.49,0,0,0-35.33,87.83v63.54A29.19,29.19,0,0,0,355.27,646v12.81a9,9,0,0,0,9,9h45.64a9,9,0,0,0,9-9V648.55H581.07v10.23a9,9,0,0,0,9,9h45.64a9,9,0,0,0,9-9V646a29.19,29.19,0,0,0,17.21-26.63V555.8A48.49,48.49,0,0,0,634.49,467.32ZM586,614.71v15.84H414V614.71H586ZM643.92,551v68.32a11.23,11.23,0,0,1-11.21,11.21H604V515.81a30.49,30.49,0,1,1,44.7,27,9,9,0,0,0-4.78,7.57C643.91,550.6,643.91,550.83,643.92,551ZM391.39,474.85V400a53.07,53.07,0,0,1,53-53H555.57a53.07,53.07,0,0,1,53,53v74.84a48.88,48.88,0,0,0-22.59,41v15.11H414V515.81A48.88,48.88,0,0,0,391.39,474.85ZM414,596.71V548.92H586v47.79H414Zm-62.71-53.93a30.49,30.49,0,1,1,44.71-27V630.55H367.28a11.23,11.23,0,0,1-11.21-11.21V551.18c0-.27,0-0.54,0-0.8A9,9,0,0,0,351.28,542.79Z" transform="translate(-317 -329)"/><path d="M441.79,414.32a12,12,0,1,0,0-24A12,12,0,1,0,441.79,414.32Z" transform="translate(-317 -329)"/><path d="M500,414.32a12,12,0,1,0-8.5-3.53A12.09,12.09,0,0,0,500,414.32Z" transform="translate(-317 -329)"/><path d="M558.19,414.32a12,12,0,1,0-8.49-3.52A12.08,12.08,0,0,0,558.19,414.32Z" transform="translate(-317 -329)"/><path d="M441.79,470.72a12,12,0,1,0,0-24A12,12,0,1,0,441.79,470.72Z" transform="translate(-317 -329)"/><path d="M500,470.72a12,12,0,1,0-8.5-3.53A12.08,12.08,0,0,0,500,470.72Z" transform="translate(-317 -329)"/><path d="M558.19,470.72a12,12,0,1,0-8.49-3.52A12.09,12.09,0,0,0,558.19,470.72Z" transform="translate(-317 -329)"/></svg>