<svg id="Слой_1" data-name="Слой 1" xmlns="http://www.w3.org/2000/svg" xmlns:xlink="http://www.w3.org/1999/xlink" viewBox="0 0 272 375.76"><defs><clipPath id="clip-path" transform="translate(-568 -173)"><rect x="570" y="175" width="139.92" height="371.76" style="fill:none"/></clipPath><clipPath id="clip-path-2" transform="translate(-568 -173)"><rect x="698" y="175" width="139.92" height="371.76" style="fill:none"/></clipPath></defs><title>for-9</title><g style="clip-path:url(#clip-path)"><path d="M588.8,547.8A20.82,20.82,0,0,1,568,527V194.2a20.82,20.82,0,0,1,20.8-20.8H691.2A20.82,20.82,0,0,1,712,194.2V527a20.82,20.82,0,0,1-20.8,20.8H588.8Zm0-358.4a4.81,4.81,0,0,0-4.8,4.8V527a4.8,4.8,0,0,0,4.8,4.8H691.2A4.8,4.8,0,0,0,696,527V194.2a4.81,4.81,0,0,0-4.8-4.8H588.8Z" transform="translate(-568 -173)"/><path d="M588.8,546.8A19.82,19.82,0,0,1,569,527V194.2a19.82,19.82,0,0,1,19.8-19.8H691.2A19.82,19.82,0,0,1,711,194.2V527a19.82,19.82,0,0,1-19.8,19.8H588.8Zm0-358.4a5.81,5.81,0,0,0-5.8,5.8V527a5.8,5.8,0,0,0,5.8,5.8H691.2A5.8,5.8,0,0,0,697,527V194.2a5.81,5.81,0,0,0-5.8-5.8H588.8Z" transform="translate(-568 -173)"/><path d="M588.8,546.8A19.82,19.82,0,0,1,569,527V194.2a19.82,19.82,0,0,1,19.8-19.8H691.2A19.82,19.82,0,0,1,711,194.2V527a19.82,19.82,0,0,1-19.8,19.8H588.8Zm0-358.4a5.81,5.81,0,0,0-5.8,5.8V527a5.8,5.8,0,0,0,5.8,5.8H691.2A5.8,5.8,0,0,0,697,527V194.2a5.81,5.81,0,0,0-5.8-5.8H588.8Z" transform="translate(-568 -173)"/><path d="M691.2,175.4H588.8A18.82,18.82,0,0,0,570,194.2V527a18.82,18.82,0,0,0,18.8,18.8H691.2A18.82,18.82,0,0,0,710,527V194.2a18.82,18.82,0,0,0-18.8-18.8h0ZM698,527a6.81,6.81,0,0,1-6.8,6.8H588.8A6.81,6.81,0,0,1,582,527V194.2a6.81,6.81,0,0,1,6.8-6.8H691.2a6.81,6.81,0,0,1,6.8,6.8V527Zm0,0" transform="translate(-568 -173)"/><rect width="143.92" height="375.76" style="fill:none"/><rect x="1" y="1" width="141.92" height="373.76" style="fill:none"/><rect x="1" y="1" width="141.92" height="373.76" style="fill:none"/></g><path d="M640,503a33.6,33.6,0,1,1,33.6-33.6A33.64,33.64,0,0,1,640,503Zm0-51.2a17.6,17.6,0,1,0,17.6,17.6A17.62,17.62,0,0,0,640,451.8Z" transform="translate(-568 -173)"/><path d="M640,502a32.6,32.6,0,1,1,32.6-32.6A32.64,32.64,0,0,1,640,502Zm0-51.2a18.6,18.6,0,1,0,18.6,18.6A18.62,18.62,0,0,0,640,450.8Z" transform="translate(-568 -173)"/><path d="M640,502a32.6,32.6,0,1,1,32.6-32.6A32.64,32.64,0,0,1,640,502Zm0-51.2a18.6,18.6,0,1,0,18.6,18.6A18.62,18.62,0,0,0,640,450.8Z" transform="translate(-568 -173)"/><path d="M640,437.8a31.6,31.6,0,1,0,31.6,31.6A31.64,31.64,0,0,0,640,437.8h0Zm0,51.2a19.6,19.6,0,1,1,19.6-19.6A19.62,19.62,0,0,1,640,489h0Zm0,0" transform="translate(-568 -173)"/><path d="M608,407a14.42,14.42,0,0,1-14.4-14.4v-160A14.41,14.41,0,0,1,608,218.2h64a14.41,14.41,0,0,1,14.4,14.4v160A14.42,14.42,0,0,1,672,407H608Zm62.4-16V234.2H609.6V391h60.8Z" transform="translate(-568 -173)"/><path d="M608,406a13.42,13.42,0,0,1-13.4-13.4v-160A13.41,13.41,0,0,1,608,219.2h64a13.41,13.41,0,0,1,13.4,13.4v160A13.42,13.42,0,0,1,672,406H608Zm63.4-14V233.2H608.6V392h62.8Z" transform="translate(-568 -173)"/><path d="M608,406a13.42,13.42,0,0,1-13.4-13.4v-160A13.41,13.41,0,0,1,608,219.2h64a13.41,13.41,0,0,1,13.4,13.4v160A13.42,13.42,0,0,1,672,406H608Zm63.4-14V233.2H608.6V392h62.8Z" transform="translate(-568 -173)"/><path d="M672,220.2H608a12.41,12.41,0,0,0-12.4,12.4v160A12.41,12.41,0,0,0,608,405h64a12.41,12.41,0,0,0,12.4-12.4v-160A12.41,12.41,0,0,0,672,220.2h0Zm0.4,172.4a0.4,0.4,0,0,1-.4.4H608a0.4,0.4,0,0,1-.4-0.4v-160a0.4,0.4,0,0,1,.4-0.4h64a0.4,0.4,0,0,1,.4.4v160Zm0,0" transform="translate(-568 -173)"/><path d="M627.2,272.6a8,8,0,0,1,0-16h25.6a8,8,0,0,1,0,16H627.2Z" transform="translate(-568 -173)"/><path d="M627.2,271.6a7,7,0,0,1,0-14h25.6a7,7,0,0,1,0,14H627.2Z" transform="translate(-568 -173)"/><path d="M627.2,271.6a7,7,0,0,1,0-14h25.6a7,7,0,0,1,0,14H627.2Z" transform="translate(-568 -173)"/><path d="M652.8,258.6H627.2a6,6,0,0,0,0,12h25.6a6,6,0,1,0,0-12h0Zm0,0" transform="translate(-568 -173)"/><path d="M627.2,304.6a8,8,0,0,1,0-16h25.6a8,8,0,0,1,0,16H627.2Z" transform="translate(-568 -173)"/><path d="M627.2,303.6a7,7,0,0,1,0-14h25.6a7,7,0,0,1,0,14H627.2Z" transform="translate(-568 -173)"/><path d="M627.2,303.6a7,7,0,0,1,0-14h25.6a7,7,0,0,1,0,14H627.2Z" transform="translate(-568 -173)"/><path d="M652.8,290.6H627.2a6,6,0,0,0,0,12h25.6a6,6,0,1,0,0-12h0Zm0,0" transform="translate(-568 -173)"/><path d="M627.2,336.6a8,8,0,0,1,0-16h25.6a8,8,0,0,1,0,16H627.2Z" transform="translate(-568 -173)"/><path d="M627.2,335.6a7,7,0,0,1,0-14h25.6a7,7,0,0,1,0,14H627.2Z" transform="translate(-568 -173)"/><path d="M627.2,335.6a7,7,0,0,1,0-14h25.6a7,7,0,0,1,0,14H627.2Z" transform="translate(-568 -173)"/><path d="M652.8,322.6H627.2a6,6,0,0,0,0,12h25.6a6,6,0,1,0,0-12h0Zm0,0" transform="translate(-568 -173)"/><path d="M627.2,368.6a8,8,0,1,1,0-16h25.6a8,8,0,1,1,0,16H627.2Z" transform="translate(-568 -173)"/><path d="M627.2,367.6a7,7,0,1,1,0-14h25.6a7,7,0,1,1,0,14H627.2Z" transform="translate(-568 -173)"/><path d="M627.2,367.6a7,7,0,1,1,0-14h25.6a7,7,0,1,1,0,14H627.2Z" transform="translate(-568 -173)"/><path d="M652.8,354.6H627.2a6,6,0,0,0,0,12h25.6a6,6,0,1,0,0-12h0Zm0,0" transform="translate(-568 -173)"/><g style="clip-path:url(#clip-path-2)"><path d="M716.8,547.8A20.82,20.82,0,0,1,696,527V194.2a20.82,20.82,0,0,1,20.8-20.8H819.2A20.82,20.82,0,0,1,840,194.2V527a20.82,20.82,0,0,1-20.8,20.8H716.8Zm0-358.4a4.81,4.81,0,0,0-4.8,4.8V527a4.8,4.8,0,0,0,4.8,4.8H819.2A4.8,4.8,0,0,0,824,527V194.2a4.81,4.81,0,0,0-4.8-4.8H716.8Z" transform="translate(-568 -173)"/><path d="M716.8,546.8A19.82,19.82,0,0,1,697,527V194.2a19.82,19.82,0,0,1,19.8-19.8H819.2A19.82,19.82,0,0,1,839,194.2V527a19.82,19.82,0,0,1-19.8,19.8H716.8Zm0-358.4a5.81,5.81,0,0,0-5.8,5.8V527a5.8,5.8,0,0,0,5.8,5.8H819.2A5.8,5.8,0,0,0,825,527V194.2a5.81,5.81,0,0,0-5.8-5.8H716.8Z" transform="translate(-568 -173)"/><path d="M716.8,546.8A19.82,19.82,0,0,1,697,527V194.2a19.82,19.82,0,0,1,19.8-19.8H819.2A19.82,19.82,0,0,1,839,194.2V527a19.82,19.82,0,0,1-19.8,19.8H716.8Zm0-358.4a5.81,5.81,0,0,0-5.8,5.8V527a5.8,5.8,0,0,0,5.8,5.8H819.2A5.8,5.8,0,0,0,825,527V194.2a5.81,5.81,0,0,0-5.8-5.8H716.8Z" transform="translate(-568 -173)"/><path d="M819.2,175.4H716.8A18.82,18.82,0,0,0,698,194.2V527a18.82,18.82,0,0,0,18.8,18.8H819.2A18.82,18.82,0,0,0,838,527V194.2a18.82,18.82,0,0,0-18.8-18.8h0ZM826,527a6.81,6.81,0,0,1-6.8,6.8H716.8A6.81,6.81,0,0,1,710,527V194.2a6.81,6.81,0,0,1,6.8-6.8H819.2a6.81,6.81,0,0,1,6.8,6.8V527Zm0,0" transform="translate(-568 -173)"/><rect x="128" width="143.92" height="375.76" style="fill:none"/><rect x="129" y="1" width="141.92" height="373.76" style="fill:none"/><rect x="129" y="1" width="141.92" height="373.76" style="fill:none"/></g><path d="M768,503a33.6,33.6,0,1,1,33.6-33.6A33.64,33.64,0,0,1,768,503Zm0-51.2a17.6,17.6,0,1,0,17.6,17.6A17.62,17.62,0,0,0,768,451.8Z" transform="translate(-568 -173)"/><path d="M768,502a32.6,32.6,0,1,1,32.6-32.6A32.64,32.64,0,0,1,768,502Zm0-51.2a18.6,18.6,0,1,0,18.6,18.6A18.62,18.62,0,0,0,768,450.8Z" transform="translate(-568 -173)"/><path d="M768,502a32.6,32.6,0,1,1,32.6-32.6A32.64,32.64,0,0,1,768,502Zm0-51.2a18.6,18.6,0,1,0,18.6,18.6A18.62,18.62,0,0,0,768,450.8Z" transform="translate(-568 -173)"/><path d="M768,437.8a31.6,31.6,0,1,0,31.6,31.6A31.64,31.64,0,0,0,768,437.8h0Zm0,51.2a19.6,19.6,0,1,1,19.6-19.6A19.62,19.62,0,0,1,768,489h0Zm0,0" transform="translate(-568 -173)"/><path d="M736,407a14.42,14.42,0,0,1-14.4-14.4v-160A14.41,14.41,0,0,1,736,218.2h64a14.41,14.41,0,0,1,14.4,14.4v160A14.42,14.42,0,0,1,800,407H736Zm62.4-16V234.2H737.6V391h60.8Z" transform="translate(-568 -173)"/><path d="M736,406a13.42,13.42,0,0,1-13.4-13.4v-160A13.41,13.41,0,0,1,736,219.2h64a13.41,13.41,0,0,1,13.4,13.4v160A13.42,13.42,0,0,1,800,406H736Zm63.4-14V233.2H736.6V392h62.8Z" transform="translate(-568 -173)"/><path d="M736,406a13.42,13.42,0,0,1-13.4-13.4v-160A13.41,13.41,0,0,1,736,219.2h64a13.41,13.41,0,0,1,13.4,13.4v160A13.42,13.42,0,0,1,800,406H736Zm63.4-14V233.2H736.6V392h62.8Z" transform="translate(-568 -173)"/><path d="M800,220.2H736a12.41,12.41,0,0,0-12.4,12.4v160A12.41,12.41,0,0,0,736,405h64a12.41,12.41,0,0,0,12.4-12.4v-160A12.41,12.41,0,0,0,800,220.2h0Zm0.4,172.4a0.4,0.4,0,0,1-.4.4H736a0.4,0.4,0,0,1-.4-0.4v-160a0.4,0.4,0,0,1,.4-0.4h64a0.4,0.4,0,0,1,.4.4v160Zm0,0" transform="translate(-568 -173)"/><path d="M755.2,272.6a8,8,0,0,1,0-16h25.6a8,8,0,0,1,0,16H755.2Z" transform="translate(-568 -173)"/><path d="M755.2,271.6a7,7,0,0,1,0-14h25.6a7,7,0,0,1,0,14H755.2Z" transform="translate(-568 -173)"/><path d="M755.2,271.6a7,7,0,0,1,0-14h25.6a7,7,0,0,1,0,14H755.2Z" transform="translate(-568 -173)"/><path d="M780.8,258.6H755.2a6,6,0,0,0,0,12h25.6a6,6,0,1,0,0-12h0Zm0,0" transform="translate(-568 -173)"/><path d="M755.2,304.6a8,8,0,0,1,0-16h25.6a8,8,0,0,1,0,16H755.2Z" transform="translate(-568 -173)"/><path d="M755.2,303.6a7,7,0,0,1,0-14h25.6a7,7,0,0,1,0,14H755.2Z" transform="translate(-568 -173)"/><path d="M755.2,303.6a7,7,0,0,1,0-14h25.6a7,7,0,0,1,0,14H755.2Z" transform="translate(-568 -173)"/><path d="M780.8,290.6H755.2a6,6,0,0,0,0,12h25.6a6,6,0,1,0,0-12h0Zm0,0" transform="translate(-568 -173)"/><path d="M755.2,336.6a8,8,0,0,1,0-16h25.6a8,8,0,0,1,0,16H755.2Z" transform="translate(-568 -173)"/><path d="M755.2,335.6a7,7,0,0,1,0-14h25.6a7,7,0,0,1,0,14H755.2Z" transform="translate(-568 -173)"/><path d="M755.2,335.6a7,7,0,0,1,0-14h25.6a7,7,0,0,1,0,14H755.2Z" transform="translate(-568 -173)"/><path d="M780.8,322.6H755.2a6,6,0,0,0,0,12h25.6a6,6,0,1,0,0-12h0Zm0,0" transform="translate(-568 -173)"/><path d="M755.2,368.6a8,8,0,1,1,0-16h25.6a8,8,0,1,1,0,16H755.2Z" transform="translate(-568 -173)"/><path d="M755.2,367.6a7,7,0,1,1,0-14h25.6a7,7,0,1,1,0,14H755.2Z" transform="translate(-568 -173)"/><path d="M755.2,367.6a7,7,0,1,1,0-14h25.6a7,7,0,1,1,0,14H755.2Z" transform="translate(-568 -173)"/><path d="M780.8,354.6H755.2a6,6,0,0,0,0,12h25.6a6,6,0,1,0,0-12h0Zm0,0" transform="translate(-568 -173)"/></svg>