<svg id="Слой_1" data-name="Слой 1" xmlns="http://www.w3.org/2000/svg" viewBox="0 0 43.08 19.02"><title>for-11</title><path d="M659.68,352.11H652V344.4a0.4,0.4,0,0,0-.4-0.4h-8.11a0.4,0.4,0,0,0-.4.4v7.72H636V344.4a0.4,0.4,0,0,0-.4-0.4h-8.11a0.4,0.4,0,0,0-.4.4v7.72H619.4a0.4,0.4,0,0,0-.4.4v8.11a0.4,0.4,0,0,0,.4.4h8.11a0.4,0.4,0,0,0,.4-0.4v-7.71h7.17v7.71a0.4,0.4,0,0,0,.4.4h8.11a0.4,0.4,0,0,0,.4-0.4v-7.71h7.17v7.71a0.4,0.4,0,0,0,.4.4h8.11a0.4,0.4,0,0,0,.4-0.4v-8.11a0.4,0.4,0,0,0-.4-0.4h0Zm0,0" transform="translate(-618 -343)" style="fill:none;stroke:#000;stroke-miterlimit:10;stroke-width:2px"/></svg>