<svg id="logo" xmlns="http://www.w3.org/2000/svg" viewBox="0 0 381.35 50.46"><title>logo-text</title><path d="M30.73,136.37H-7.59a1.07,1.07,0,0,1-1-1.33c1.74-7.26,10-41.74,10-41.74a9.49,9.49,0,0,1,1.57-3.58,7.05,7.05,0,0,1,2.33-2,9.58,9.58,0,0,1,3-.95,22.59,22.59,0,0,1,3.38-.26,21.46,21.46,0,0,1,3.33.26,9.37,9.37,0,0,1,2.93,1,7,7,0,0,1,2.34,2.07,10.15,10.15,0,0,1,1.58,3.7l10,41.55A1,1,0,0,1,30.73,136.37ZM3.87,124.62l-0.64,3a1.06,1.06,0,0,0,1,1.28H19.8a1.06,1.06,0,0,0,1-1.28l-0.64-3a1.13,1.13,0,0,0,0-.13L14.06,96.06a3.64,3.64,0,0,0-.44-1.13,1.67,1.67,0,0,0-1.51-.72,2.06,2.06,0,0,0-2,1.86L3.92,124.47A0.94,0.94,0,0,0,3.87,124.62Z" transform="translate(61.55 -86.51)" style="fill:#3f2222"/><path d="M56.76,137q-2.1,0-4.27-.1t-4.13-.24q-1.94-.13-3.56-0.3c-1.05-.11-1.9-0.22-2.55-0.36a1.53,1.53,0,0,1-.94-0.38,1.61,1.61,0,0,1-.24-1V88.9a1.43,1.43,0,0,1,.23-1,1.51,1.51,0,0,1,.89-0.36c0.73-.14,1.59-0.26,2.64-0.39s2.24-.23,3.53-0.32,2.67-.17,4.11-0.23,2.86-.1,4.29-0.1a28.54,28.54,0,0,1,8.95,1.3A16.3,16.3,0,0,1,76.31,98.09a26.59,26.59,0,0,1,1.46,9.2v8.91a26.75,26.75,0,0,1-1.46,9.22,17,17,0,0,1-4.1,6.45,16.8,16.8,0,0,1-6.51,3.82A28.83,28.83,0,0,1,56.76,137Zm0-42.42q-1.33,0-2.76,0c-1,0-1.72.06-2.23,0.11a1.06,1.06,0,0,0-1,1.05v32a1.06,1.06,0,0,0,1,1.05c0.54,0,1.28.08,2.24,0.1s1.85,0,2.74,0a17.24,17.24,0,0,0,4.5-.54,8.15,8.15,0,0,0,3.67-2.11,9.8,9.8,0,0,0,2.34-4,20.37,20.37,0,0,0,.78-6.1v-8.84a20.44,20.44,0,0,0-.78-6.07,9.67,9.67,0,0,0-2.35-4,8.41,8.41,0,0,0-3.66-2.1A16.87,16.87,0,0,0,56.76,94.55Z" transform="translate(61.55 -86.51)" style="fill:#3f2222"/><path d="M162.84,137a25.2,25.2,0,0,1-7.7-1.15,15.57,15.57,0,0,1-6.09-3.62,17.34,17.34,0,0,1-4.1-6.49,28.19,28.19,0,0,1-1.52-9.85v-8.23A28.15,28.15,0,0,1,145,97.78,17.16,17.16,0,0,1,149,91.3a15.82,15.82,0,0,1,6.1-3.62,26,26,0,0,1,15.36,0,15.79,15.79,0,0,1,6.08,3.62,17.23,17.23,0,0,1,4.08,6.48,28.34,28.34,0,0,1,1.52,9.85v8.23a28.35,28.35,0,0,1-1.52,9.85,17.4,17.4,0,0,1-4.09,6.5,15.51,15.51,0,0,1-6.07,3.62A25.06,25.06,0,0,1,162.84,137Zm0-42.29c-3.23,0-5.68,1.08-7.26,3.21s-2.28,5.24-2.28,9.72v8.27c0,4.48.75,7.66,2.28,9.72s4,3.21,7.26,3.21,5.69-1.08,7.29-3.2,2.32-5.24,2.32-9.72v-8.27c0-4.48-.76-7.66-2.32-9.72S166.07,94.69,162.84,94.69Z" transform="translate(61.55 -86.51)" style="fill:#3f2222"/><path d="M-17.29,87.49a1.43,1.43,0,0,0-1.08-.37h-6.46A2.26,2.26,0,0,0-27,88.45l-10.56,19.66a2.14,2.14,0,0,1-1.68,1.48,2.1,2.1,0,0,1-1.71-1.47L-51.5,88.44a2.16,2.16,0,0,0-2.1-1.32h-6.51a1.56,1.56,0,0,0-1.1.35,1.16,1.16,0,0,0-.34,1v46.91a1,1,0,0,0,1,1h7.22a1,1,0,0,0,1-1V107.16a1.46,1.46,0,0,1,1.43-1.54,1.69,1.69,0,0,1,1.47,1L-43.18,118a1.24,1.24,0,0,0,1.18.67h5.53a1.15,1.15,0,0,0,1.13-.63l6.25-11.48a1.76,1.76,0,0,1,1.46-1,1.44,1.44,0,0,1,1.4,1.6s0,22.87,0,28.1a1.05,1.05,0,0,0,1.05,1.05H-18a1,1,0,0,0,1-1V88.49A1.26,1.26,0,0,0-17.29,87.49Z" transform="translate(61.55 -86.51)" style="fill:#3f2222"/><path d="M132.45,87.49a1.43,1.43,0,0,0-1.08-.37h-6.46a2.26,2.26,0,0,0-2.16,1.33L112.2,108.12a2.14,2.14,0,0,1-1.68,1.48,2.1,2.1,0,0,1-1.71-1.47L98.24,88.44a2.16,2.16,0,0,0-2.1-1.32H89.63a1.56,1.56,0,0,0-1.1.35,1.16,1.16,0,0,0-.34,1v46.91a1,1,0,0,0,1,1h7.22a1,1,0,0,0,1-1V107.16a1.46,1.46,0,0,1,1.43-1.54,1.69,1.69,0,0,1,1.47,1L106.56,118a1.24,1.24,0,0,0,1.18.67h5.53a1.15,1.15,0,0,0,1.13-.63l6.25-11.48a1.76,1.76,0,0,1,1.46-1,1.44,1.44,0,0,1,1.4,1.6s0,22.87,0,28.1a1.05,1.05,0,0,0,1.05,1.05h7.15a1,1,0,0,0,1-1V88.49A1.26,1.26,0,0,0,132.45,87.49Z" transform="translate(61.55 -86.51)" style="fill:#3f2222"/><rect x="223" y="136.37" width="0.63" transform="translate(129.4 260.32) rotate(-84.96)" style="fill:#3f2222"/><path d="M222.61,116.64a1.46,1.46,0,0,1-1.4,1.67,1.9,1.9,0,0,1-1.49-1.07L203.34,88.73a4.61,4.61,0,0,0-1-1.33,1.52,1.52,0,0,0-1-.28h-7a1.54,1.54,0,0,0-1.58,1.57v46.64a1,1,0,0,0,1,1h6.75a1,1,0,0,0,1-1V108.07a1.45,1.45,0,0,1,1.5-1.62h0a2.1,2.1,0,0,1,1.44,1.1l15.75,27.22a3.22,3.22,0,0,0,1.18,1.33,3.53,3.53,0,0,0,1.49.28h6.79a1.6,1.6,0,0,0,1.17-.47,1.44,1.44,0,0,0,.47-1.11l-0.06-46.64a1,1,0,0,0-1-1h-6.68a1,1,0,0,0-1,1v28.48Z" transform="translate(61.55 -86.51)" style="fill:#3f2222"/><path d="M264.69,110.56L280,88.77a1,1,0,0,0-.84-1.63h-8.34a1,1,0,0,0-.85.45l-14.28,21.05h-2.85l-0.06-20.47a1,1,0,0,0-1-1h-7.6a1,1,0,0,0-1,1v47.18a1,1,0,0,0,1,1h7.66a1,1,0,0,0,1-1V113.92h2.47l13.56,21.93a1,1,0,0,0,.88.49l9.31,0a1,1,0,0,0,.87-1.61l-15.3-23A1.06,1.06,0,0,1,264.69,110.56Z" transform="translate(61.55 -86.51)" style="fill:#3f2222"/><path d="M318,115.76c-1.2-2.12-3.53-4.12-6.94-6L302.18,105q-1.41-.79-2.34-1.38a8.59,8.59,0,0,1-1.62-1.26,4.4,4.4,0,0,1-.94-1.4,4.58,4.58,0,0,1-.3-1.71,4.25,4.25,0,0,1,1.65-3.64,8.17,8.17,0,0,1,4.81-1.1q1.74,0,4,.1t4.41,0.24L317,95.21a1,1,0,0,0,1.1-1l0.29-5.3a1,1,0,0,0-.81-1.06c-0.62-.13-1.45-0.31-2-0.41q-1.71-.28-3.67-0.48t-4.14-.33q-2.16-.13-4-0.13a28.47,28.47,0,0,0-8.11,1,13.48,13.48,0,0,0-5.07,2.65A9.2,9.2,0,0,0,287.89,94a14.84,14.84,0,0,0-.8,4.93,15.85,15.85,0,0,0,.36,3.42,11.44,11.44,0,0,0,1.21,3.12,13.15,13.15,0,0,0,2.3,2.93,20.25,20.25,0,0,0,3.78,2.82l9.51,5.67a16,16,0,0,1,3.89,2.89,4.9,4.9,0,0,1,1.19,3.29,5.73,5.73,0,0,1-1.63,4.45c-1.07,1-2.89,1.44-5.57,1.44-0.71,0-1.67,0-2.86-.1l-3.69-.2c-1,0-3.9-.28-5.58-0.43a1,1,0,0,0-1.12,1v5.38a1,1,0,0,0,.79,1,50.74,50.74,0,0,0,5.17,1,56.86,56.86,0,0,0,7.15.4,24.7,24.7,0,0,0,8.49-1.27,15.78,15.78,0,0,0,5.48-3.25A11.41,11.41,0,0,0,318.9,128a15.18,15.18,0,0,0,.9-5.11A14.34,14.34,0,0,0,318,115.76Z" transform="translate(61.55 -86.51)" style="fill:#3f2222"/></svg>