<svg id="Слой_1" data-name="Слой 1" xmlns="http://www.w3.org/2000/svg" xmlns:xlink="http://www.w3.org/1999/xlink" viewBox="0 0 378.49 379.04"><defs><clipPath id="clip-path" transform="translate(-60 -60.87)"><rect x="60" y="60" width="378.96" height="380.88" style="fill:none"/></clipPath></defs><title>phone</title><g style="clip-path:url(#clip-path)"><path d="M359.29,295.68c-7.76-8.08-17.12-12.4-27-12.4S313,287.52,304.89,295.6l-25.28,25.2c-2.08-1.12-4.16-2.16-6.16-3.2-2.88-1.44-5.6-2.8-7.92-4.24-23.68-15-45.2-34.64-65.84-60-10-12.64-16.72-23.28-21.6-34.08,6.56-6,12.64-12.24,18.56-18.24,2.24-2.24,4.48-4.56,6.72-6.8,16.8-16.8,16.8-38.56,0-55.36L181.53,117c-2.48-2.48-5-5-7.44-7.6-4.8-5-9.84-10.08-15-14.88-7.76-7.68-17-11.76-26.8-11.76s-19.2,4.08-27.2,11.76l-0.16.16-27.2,27.44a58.53,58.53,0,0,0-17.36,37.2c-1.92,23.36,5,45.12,10.24,59.36,13,35,32.32,67.36,61.2,102.08,35,41.84,77.2,74.88,125.36,98.16,18.4,8.72,43,19,70.4,20.8,1.68,0.08,3.44.16,5,.16,18.48,0,34-6.64,46.16-19.84,0.08-.16.24-0.24,0.32-0.4a181.17,181.17,0,0,1,14-14.48c3.44-3.28,7-6.72,10.4-10.32,7.92-8.24,12.08-17.84,12.08-27.68s-4.24-19.44-12.32-27.44Zm28.64,84.24c-0.08,0-.08.08,0,0-3.12,3.36-6.32,6.4-9.76,9.76a210.32,210.32,0,0,0-15.44,16c-8.08,8.64-17.6,12.72-30.08,12.72-1.2,0-2.48,0-3.68-.08-23.76-1.52-45.84-10.8-62.4-18.72a355.41,355.41,0,0,1-118.08-92.48c-27.28-32.88-45.52-63.28-57.6-95.92-7.44-19.92-10.16-35.44-9-50.08a36.71,36.71,0,0,1,11-23.76l27.28-27.28c3.92-3.68,8.08-5.68,12.16-5.68,5,0,9.12,3,11.68,5.6l0.24,0.24c4.88,4.56,9.52,9.28,14.4,14.32,2.48,2.56,5,5.12,7.6,7.76l21.84,21.84c8.48,8.48,8.48,16.32,0,24.8-2.32,2.32-4.56,4.64-6.88,6.88-6.72,6.88-13.12,13.28-20.08,19.52a2,2,0,0,0-.4.4c-6.88,6.88-5.6,13.6-4.16,18.16l0.24,0.72c5.68,13.76,13.68,26.72,25.84,42.16l0.08,0.08c22.08,27.2,45.36,48.4,71,64.64a108.11,108.11,0,0,0,9.84,5.36c2.88,1.44,5.6,2.8,7.92,4.24,0.32,0.16.64,0.4,1,.56a17.34,17.34,0,0,0,7.92,2c6.64,0,10.8-4.16,12.16-5.52L320,310.8c2.72-2.72,7-6,12.08-6s9,3.12,11.52,5.84l44.24,44.24c8.24,8.16,8.24,16.56.08,25h0Zm0,0" transform="translate(-60 -60.87)"/><path d="M264.57,151a103,103,0,0,1,83.84,83.84,10.73,10.73,0,0,0,10.64,9,14.71,14.71,0,0,0,1.84-.16,10.81,10.81,0,0,0,8.88-12.48A124.5,124.5,0,0,0,268.33,129.76a10.86,10.86,0,0,0-12.48,8.8A10.68,10.68,0,0,0,264.57,151h0Zm0,0" transform="translate(-60 -60.87)"/><path d="M438.33,228.08a205,205,0,0,0-167-167,10.79,10.79,0,1,0-3.52,21.28A183.11,183.11,0,0,1,417.05,231.6a10.73,10.73,0,0,0,10.64,9,13.86,13.86,0,0,0,1.84-.16,10.6,10.6,0,0,0,8.8-12.32h0Zm0,0" transform="translate(-60 -60.87)"/></g></svg>