<svg id="Слой_1" data-name="Слой 1" xmlns="http://www.w3.org/2000/svg" viewBox="0 0 392.64 391.68"><title>report-ruler</title><path d="M819,370.64H628.92v-190A16.68,16.68,0,0,0,612.28,164H459.64A16.63,16.63,0,0,0,443,180.64V539a16.68,16.68,0,0,0,16.64,16.64H818.12c9.2,0,16.64-7.52,17.52-15.84V387.36A16.75,16.75,0,0,0,819,370.64h0ZM802.28,523.2H750.6V490.72a16.64,16.64,0,0,0-33.28,0V523.2H665.64V490.72a16.64,16.64,0,0,0-33.28,0V523.2H580.68V490.72a16.64,16.64,0,0,0-33.28,0V523.2H475.48v-85H508c8.32,0,15.84-7.52,16.64-16.64A16.68,16.68,0,0,0,508,404.88H475.48V356.56H508c8.32,0,16.64-7.52,16.64-16.64A16.73,16.73,0,0,0,508,323.28H475.48V275H508c8.32,0,16.64-7.52,16.64-16.64A16.68,16.68,0,0,0,508,241.68H475.48v-45.2h119.2V386.56a16.68,16.68,0,0,0,16.64,16.64H802.2v120h0.08Zm0,0" transform="translate(-443 -164)"/></svg>