<svg id="Слой_1" data-name="Слой 1" xmlns="http://www.w3.org/2000/svg" viewBox="0 0 397.52 397.46"><title>report-loop</title><path d="M818.84,558.92a19.42,19.42,0,0,1-13.76-5.86l-85.77-85.77a172,172,0,0,1-106.75,37.29C518,504.58,441,427.62,441,333s77-171.56,171.56-171.56,171.56,77,171.56,171.56a172,172,0,0,1-37.29,106.75l85.77,85.77A19.62,19.62,0,0,1,818.84,558.92ZM612.56,200.26c-73.2,0-132.76,59.55-132.76,132.76s59.56,132.76,132.76,132.76S745.32,406.22,745.32,333,685.76,200.26,612.56,200.26Z" transform="translate(-441 -161.46)"/><path d="M830.48,527.66L742.8,440a168,168,0,0,0,38.32-107c0-93-75.6-168.56-168.56-168.56S444,240.06,444,333s75.6,168.56,168.56,168.56a168,168,0,0,0,107-38.32l87.68,87.68a16.46,16.46,0,0,0,23.28-23.28h0ZM476.8,333A135.76,135.76,0,1,1,612.56,468.78,135.88,135.88,0,0,1,476.8,333h0Zm0,0" transform="translate(-441 -161.46)"/><path d="M697.26,343.29a13.89,13.89,0,0,1-13.8-12.45,87.48,87.48,0,0,0-77.08-77.08,13.88,13.88,0,0,1,1.44-27.68,14.22,14.22,0,0,1,1.52.08A115,115,0,0,1,711.05,327.87,13.89,13.89,0,0,1,697.26,343.29Z" transform="translate(-441 -161.46)"/><path d="M708.07,328.19A112,112,0,0,0,609,229.14,10.9,10.9,0,0,0,596.92,240h0a10.9,10.9,0,0,0,9.78,10.82,90.19,90.19,0,0,1,79.74,79.74,10.9,10.9,0,0,0,10.82,9.78h0A10.9,10.9,0,0,0,708.07,328.19Z" transform="translate(-441 -161.46)"/></svg>