<svg id="Слой_1" data-name="Слой 1" xmlns="http://www.w3.org/2000/svg" xmlns:xlink="http://www.w3.org/1999/xlink" viewBox="0 0 80 70.4"><defs><clipPath id="clip-path" transform="translate(-600 -325)"><rect x="600" y="325" width="79.92" height="71" style="fill:none"/></clipPath></defs><title>service-2</title><g style="clip-path:url(#clip-path)"><path d="M675.2,325H604.8a4.8,4.8,0,0,0-4.8,4.8v60.8a4.8,4.8,0,0,0,4.8,4.8h70.4a4.8,4.8,0,0,0,4.8-4.8V329.8a4.8,4.8,0,0,0-4.8-4.8h0Zm-12,3.2a3.2,3.2,0,1,1-3.2,3.2,3.2,3.2,0,0,1,3.2-3.2h0Zm-8.8,0a3.2,3.2,0,1,1-3.2,3.2,3.21,3.21,0,0,1,3.2-3.2h0Zm20.8,62.4H604.8V337.8h70.4v52.8Zm-3.2-56a3.2,3.2,0,1,1,3.2-3.2,3.2,3.2,0,0,1-3.2,3.2h0Zm0,0" transform="translate(-600 -325)"/></g><path d="M638.33,346.39a13.49,13.49,0,0,1,3.35,0c0,3.08,0,6.16,0,9.24a24.91,24.91,0,0,0-3.37,0c0.05-3.09,0-6.18,0-9.26h0Zm0,0" transform="translate(-600 -325)"/><path d="M626.32,349.38c1-.43,2-0.87,3-1.25,1.22,2.85,2.4,5.71,3.57,8.59-1.08.31-2.07,0.86-3.12,1.23-1.12-2.87-2.4-5.69-3.49-8.57h0Zm0,0" transform="translate(-600 -325)"/><path d="M647.09,356.7q1.74-4.29,3.56-8.55c1,0.36,2,.8,3,1.23-1.09,2.88-2.36,5.7-3.5,8.57-1-.39-2-0.89-3.1-1.25h0Zm0,0" transform="translate(-600 -325)"/><path d="M616.43,356.91a11.38,11.38,0,0,1,2.34-2.41c2.13,2.24,4.41,4.32,6.5,6.59a30.65,30.65,0,0,0-2.38,2.31c-2.13-2.18-4.32-4.32-6.46-6.49h0Zm0,0" transform="translate(-600 -325)"/><path d="M661.23,354.56a9,9,0,0,1,2.35,2.34c-2.14,2.18-4.32,4.33-6.48,6.5-0.75-.83-1.56-1.59-2.36-2.37,2.16-2.16,4.31-4.33,6.49-6.47h0Zm0,0" transform="translate(-600 -325)"/><path d="M611.26,364.45c2.89,1.07,5.69,2.36,8.56,3.49-0.35,1.06-.92,2-1.23,3.12-2.86-1.18-5.73-2.36-8.59-3.56,0.39-1,.82-2,1.26-3h0Zm0,0" transform="translate(-600 -325)"/><path d="M660.19,367.94c2.87-1.12,5.68-2.41,8.57-3.49,0.45,1,.87,2,1.24,3q-4.27,1.81-8.57,3.56c-0.33-1.08-.88-2.06-1.24-3.12h0Zm0,0" transform="translate(-600 -325)"/><path d="M640.71,376.82a4,4,0,1,0,3.16,4l6.6-10.25Zm0,0" transform="translate(-600 -325)"/></svg>