<svg id="Слой_1" data-name="Слой 1" xmlns="http://www.w3.org/2000/svg" xmlns:xlink="http://www.w3.org/1999/xlink" viewBox="0 0 73.6 77.07"><defs><clipPath id="clip-path" transform="translate(-603 -322)"><rect x="603" y="322" width="73.92" height="78" style="fill:none"/></clipPath></defs><title>service-1</title><g style="clip-path:url(#clip-path)"><path d="M676.6,338.35l-9.38-8.18L657.84,322l-9.38,8.18-9.38,8.18h10.26c-3.46,21.22-23.07,37.73-45.38,34.22a0.78,0.78,0,0,0-.41,1.5c27.77,9.67,59.77-6.22,64.4-35.73h8.65Zm0,0" transform="translate(-603 -322)"/></g><path d="M655.8,365.78a49.8,49.8,0,0,1-9.6,6.93v26.37h9.6v-33.3Zm0,0" transform="translate(-603 -322)"/><path d="M631.8,399.07h9.6v-24a52.5,52.5,0,0,1-9.6,3v21Zm0,0" transform="translate(-603 -322)"/><path d="M660.6,399.07h9.6V340.75H670a46.23,46.23,0,0,1-9.35,19.87v38.45Zm0,0" transform="translate(-603 -322)"/><path d="M612.6,378.74a53.21,53.21,0,0,1-9.6-2.32v22.65h9.6V378.74Zm0,0" transform="translate(-603 -322)"/><path d="M617.4,399.07H627V378.91a55.3,55.3,0,0,1-6.67.41c-1,0-2,0-2.93-.09v19.85Zm0,0" transform="translate(-603 -322)"/></svg>