<svg id="Слой_1" data-name="Слой 1" xmlns="http://www.w3.org/2000/svg" viewBox="0 0 76.71 76.48"><title>service-3</title><path d="M677.71,380.41c-0.31-.24-39.63-21.79-40-21.94l21.94,40c0-6,0-12,0-18.05h18Zm0,0" transform="translate(-601 -322)" style="fill:#020202"/><path d="M640,369.2a13.62,13.62,0,1,1,8.36-8.58l4.27,2.34a18.42,18.42,0,1,0-10.3,10.5Zm0,0" transform="translate(-601 -322)"/><path d="M647.7,383.32a29.62,29.62,0,1,1,14.77-14.95l4.22,2.32A34.42,34.42,0,1,0,650,387.53Zm0,0" transform="translate(-601 -322)"/></svg>