<svg id="Слой_1" data-name="Слой 1" xmlns="http://www.w3.org/2000/svg" viewBox="0 0 387.42 333.28"><title>for-5</title><path d="M375.76,543.6a49.81,49.81,0,0,0,47.31-33.84h-94.7A49.83,49.83,0,0,0,375.76,543.6Z" transform="translate(-306 -302)" style="fill:none"/><polygon points="25.04 187.44 115.21 187.44 70.54 66.22 25.04 187.44" style="fill:none"/><path d="M624.24,543.6a49.67,49.67,0,0,0,47.32-33.84H576.85A49.83,49.83,0,0,0,624.24,543.6Z" transform="translate(-306 -302)" style="fill:none"/><polygon points="362.97 187.44 318.3 66.22 272.81 187.44 362.97 187.44" style="fill:none"/><path d="M554.92,503.39h0a66.88,66.88,0,0,0,22.53,43.69,70.64,70.64,0,0,0,46.82,17.63,69.67,69.67,0,0,0,69.19-61.12h0c0.05-2.15-2.78-11.83-27.3-80C654.4,391.07,642.46,358.38,639,349h6.82a2,2,0,0,0,2-2v-17.2a2,2,0,0,0-2-2H510.24v-15.4A10.36,10.36,0,0,0,499.88,302h0a10.36,10.36,0,0,0-10.36,10.36v15.4H353.92a2,2,0,0,0-2,2V347a2,2,0,0,0,2,2h6.89C324.44,447.79,306,498.61,306,500.09c1.73,36.24,32.26,64.62,69.52,64.62,36.92,0,67.84-28.37,70.4-64.58,0,0,0-.09,0-0.14,0-.49,0-1.38-55.53-151h99V614H414q-1.74,0-3.45.14c-13.41,1.1-12.41,21.14,1,21.14H587.08c13.72,0,14.33-20.63.62-21.17q-0.83,0-1.66,0H510.32V349h99.06c-3.44,9.42-15.38,42.09-27.09,74.6C557.84,491.44,554.9,501.21,554.92,503.39ZM375.76,543.6a49.83,49.83,0,0,1-47.39-33.84h94.7A49.81,49.81,0,0,1,375.76,543.6Zm45.45-54.16H331l45.5-121.22Zm203,54.16a49.83,49.83,0,0,1-47.39-33.84h94.71A49.67,49.67,0,0,1,624.24,543.6Zm0.06-175.38L669,489.44H578.81Z" transform="translate(-306 -302)"/></svg>