<svg id="Слой_1" data-name="Слой 1" xmlns="http://www.w3.org/2000/svg" viewBox="0 0 160.45 167.97"><title>for-10</title><path d="M639.17,444.38a11.86,11.86,0,0,1-11.85-11.85v-22.8l-8.82,3.83v10.1a11.85,11.85,0,0,1-23.69.19l-29.08,12.63a4.4,4.4,0,0,1-1.77.37,4.49,4.49,0,0,1-3.15-1.31,4.43,4.43,0,0,1-.94-4.93l65.84-151.54a4.45,4.45,0,0,1,5.34-2.5c0.77,0.23,19.27,6,51,37.7s37.48,50.24,37.7,51a4.46,4.46,0,0,1-2.5,5.34L651,399.43v33.09A11.86,11.86,0,0,1,639.17,444.38Zm-7.39-45.9a4.45,4.45,0,0,1,4.46,4.45v29.6a2.93,2.93,0,1,0,5.87,0v-36a4.45,4.45,0,0,1,2.68-4.09l45.6-19.81c-3.09-3.82-5.66-9.11-8.37-14.7L682,357.8c-1.77-3.64-3.59-7.4-5.58-10.76-5-8.52-10.35-9.65-17.71-11.22l-1.48-.32c-6.79-1.48-9.21-6-11.78-10.84a49.84,49.84,0,0,0-7.4-11c-5.3-5.84-11-6.71-13.9-6.71l-0.82,0-50.75,116.8L597.49,413a4.46,4.46,0,0,1,6.23,4.09v6.6a2.93,2.93,0,1,0,5.87,0v-13a4.45,4.45,0,0,1,2.68-4.09l17.73-7.7A4.34,4.34,0,0,1,631.78,398.48Zm-4.69-100.2c4.73,0.56,11.4,2.69,17.52,9.44a57.78,57.78,0,0,1,8.65,12.73c2.38,4.47,3.19,5.78,5.83,6.36l1.45,0.31c8.11,1.73,16.5,3.52,23.52,15.4,2.19,3.7,4.11,7.66,6,11.5,2.86,5.9,6.08,12.54,9.07,14.82l10.59-4.6c-2.89-6-11.66-21.37-33.92-43.63s-37.67-31.1-43.62-33.94Z" transform="translate(-559.5 -276.41)"/><path d="M639.17,443.88a11.36,11.36,0,0,1-11.35-11.35V409L618,413.23v10.43a11.35,11.35,0,1,1-22.69,0v-0.57L565.53,436a3.9,3.9,0,0,1-1.57.33,4,4,0,0,1-2.8-1.16,3.93,3.93,0,0,1-.83-4.37l65.84-151.54a3.95,3.95,0,0,1,4.74-2.22c0.77,0.23,19.15,5.92,50.8,37.58s37.35,50,37.58,50.8a4,4,0,0,1-2.22,4.74l-66.55,28.92v33.42A11.36,11.36,0,0,1,639.17,443.88ZM631.78,399a4,4,0,0,1,4,4v29.6a3.43,3.43,0,1,0,6.87,0v-36a4,4,0,0,1,2.38-3.63l46.21-20.08c-3.25-3.79-5.92-9.31-8.73-15.11l-0.05-.11c-1.77-3.65-3.6-7.42-5.59-10.79-5.14-8.7-10.55-9.86-18-11.46L657.3,335c-6.56-1.43-8.93-5.88-11.45-10.58a50.21,50.21,0,0,0-7.47-11.07c-5.43-6-11.27-6.87-14.27-6.87-0.4,0-.78,0-1.16,0L571.58,424.78l26.11-11.34a4,4,0,0,1,5.53,3.63v6.6a3.43,3.43,0,1,0,6.87,0v-13a4,4,0,0,1,2.38-3.63l17.73-7.7A3.85,3.85,0,0,1,631.78,399ZM626.36,298.7c5,0.45,11.7,2.53,17.88,9.35a57.36,57.36,0,0,1,8.58,12.63c2.42,4.53,3.32,6,6.17,6.61l1.45,0.31c8,1.71,16.29,3.47,23.2,15.17,2.18,3.69,4.1,7.64,6,11.47,3,6.1,6.29,13,9.46,15.16l11.33-4.92c-3-6.35-11.72-21.71-34.24-44.24S638.18,288.91,631.89,286Z" transform="translate(-559.5 -276.41)"/><path d="M639.17,443.38a10.86,10.86,0,0,1-10.85-10.85V408.2l-10.82,4.7v10.76a10.85,10.85,0,1,1-21.69,0v-1.33l-30.48,13.24a3.4,3.4,0,0,1-1.37.29,3.49,3.49,0,0,1-2.45-1,3.43,3.43,0,0,1-.73-3.82l65.84-151.54a3.45,3.45,0,0,1,4.14-1.94c0.76,0.23,19,5.89,50.59,37.45s37.23,49.83,37.45,50.59a3.46,3.46,0,0,1-1.94,4.14l-66.86,29v33.75A10.86,10.86,0,0,1,639.17,443.38Zm-7.39-43.9a3.45,3.45,0,0,1,3.46,3.45v29.6a3.93,3.93,0,1,0,7.87,0v-36a3.45,3.45,0,0,1,2.08-3.17L692,373c-3.41-3.75-6.18-9.47-9.11-15.51l-0.05-.11c-1.77-3.66-3.61-7.44-5.61-10.83-5.25-8.89-11-10.13-18.37-11.69l-1.48-.32c-6.33-1.38-8.55-5.53-11.11-10.33A50.64,50.64,0,0,0,638.75,313c-5.56-6.12-11.56-7-14.64-7-0.51,0-1,0-1.5.07l-52,119.68,27.27-11.85a3.46,3.46,0,0,1,4.83,3.17v6.6a3.93,3.93,0,1,0,7.87,0v-13a3.45,3.45,0,0,1,2.08-3.17l17.73-7.7A3.39,3.39,0,0,1,631.78,399.48Zm-6.16-100.33c4.94,0.31,11.88,2.22,18.25,9.24a56.94,56.94,0,0,1,8.5,12.53c2.45,4.58,3.44,6.19,6.5,6.86l1.45,0.31c7.9,1.69,16.07,3.43,22.87,14.93,2.17,3.67,4.08,7.62,5.93,11.44,3.2,6.61,6.51,13.43,9.86,15.51l12-5.24c-2.78-6.07-11.42-21.7-34.56-44.84-23.3-23.3-38.83-31.85-44.84-34.58Z" transform="translate(-559.5 -276.41)"/><path d="M718.33,365.73c-0.22-.76-5.79-18.85-37.32-50.37s-49.62-37.1-50.37-37.32a3,3,0,0,0-3.54,1.66L561.25,431.22a3,3,0,0,0,3.89,3.89l31.18-13.54v2.09a10.35,10.35,0,1,0,20.69,0V412.57l11.82-5.14v25.09a10.35,10.35,0,1,0,20.69,0V398.45l67.16-29.18a3,3,0,0,0,1.66-3.54h0ZM645.38,393.8a3,3,0,0,0-1.78,2.71v36a4.43,4.43,0,1,1-8.87,0v-29.6a3,3,0,0,0-3-3,2.89,2.89,0,0,0-1.18.25l-17.73,7.7a3,3,0,0,0-1.78,2.71v13a4.43,4.43,0,1,1-8.87,0v-6.6a3,3,0,0,0-4.13-2.71L569.66,426.7,622.27,305.6c2.66-.32,10.06-0.39,16.85,7.09A51,51,0,0,1,646.73,324c2.5,4.69,4.67,8.75,10.77,10.08l1.48,0.32c7.45,1.59,13.33,2.85,18.69,11.93,2,3.44,3.89,7.27,5.69,11,3.15,6.5,6,12.29,9.51,15.91ZM699,370.52c-3.55-2-7-9-10.27-15.84-1.85-3.81-3.76-7.75-5.92-11.41-6.68-11.31-14.75-13-22.55-14.7l-1.45-.31c-3.31-.72-4.42-2.58-6.82-7.08a56.6,56.6,0,0,0-8.45-12.46c-6.64-7.32-13.91-9-18.63-9.11l6.5-15c5.73,2.52,21.49,10.93,45.45,34.89s32.31,39.7,34.87,45.45Zm0,0" transform="translate(-559.5 -276.41)"/><path d="M625.87,370.48a16.28,16.28,0,1,1,16.28-16.28A16.3,16.3,0,0,1,625.87,370.48Zm0-23.65a7.37,7.37,0,1,0,7.37,7.37A7.38,7.38,0,0,0,625.87,346.83Z" transform="translate(-559.5 -276.41)"/><path d="M625.87,370a15.78,15.78,0,1,1,15.78-15.78A15.8,15.8,0,0,1,625.87,370Zm0-23.65a7.87,7.87,0,1,0,7.87,7.87A7.88,7.88,0,0,0,625.87,346.33Z" transform="translate(-559.5 -276.41)"/><path d="M625.87,369.48a15.28,15.28,0,1,1,15.28-15.28A15.3,15.3,0,0,1,625.87,369.48Zm0-23.65a8.37,8.37,0,1,0,8.37,8.37A8.38,8.38,0,0,0,625.87,345.83Z" transform="translate(-559.5 -276.41)"/><path d="M625.87,339.42a14.78,14.78,0,1,0,14.78,14.78,14.79,14.79,0,0,0-14.78-14.78h0Zm0,23.64a8.87,8.87,0,1,1,8.87-8.87,8.88,8.88,0,0,1-8.87,8.87h0Zm0,0" transform="translate(-559.5 -276.41)"/><path d="M605.18,403a13.32,13.32,0,1,1,13.32-13.32A13.34,13.34,0,0,1,605.18,403Zm0-17.74a4.41,4.41,0,1,0,4.41,4.41A4.42,4.42,0,0,0,605.18,385.26Z" transform="translate(-559.5 -276.41)"/><path d="M605.18,402.5A12.82,12.82,0,1,1,618,389.67,12.84,12.84,0,0,1,605.18,402.5Zm0-17.74a4.91,4.91,0,1,0,4.91,4.91A4.92,4.92,0,0,0,605.18,384.76Z" transform="translate(-559.5 -276.41)"/><path d="M605.18,402a12.32,12.32,0,1,1,12.32-12.32A12.34,12.34,0,0,1,605.18,402Zm0-17.74a5.41,5.41,0,1,0,5.41,5.41A5.42,5.42,0,0,0,605.18,384.26Z" transform="translate(-559.5 -276.41)"/><path d="M605.18,377.85A11.82,11.82,0,1,0,617,389.67a11.84,11.84,0,0,0-11.82-11.83h0Zm0,17.74a5.91,5.91,0,1,1,5.91-5.91,5.92,5.92,0,0,1-5.91,5.91h0Zm0,0" transform="translate(-559.5 -276.41)"/><path d="M662.82,379.35a17.76,17.76,0,1,1,17.76-17.76A17.78,17.78,0,0,1,662.82,379.35Zm0-26.6a8.85,8.85,0,1,0,8.85,8.85A8.86,8.86,0,0,0,662.82,352.74Z" transform="translate(-559.5 -276.41)"/><path d="M662.82,378.85a17.26,17.26,0,1,1,17.26-17.26A17.28,17.28,0,0,1,662.82,378.85Zm0-26.6a9.35,9.35,0,1,0,9.35,9.35A9.36,9.36,0,0,0,662.82,352.24Z" transform="translate(-559.5 -276.41)"/><path d="M662.82,378.35a16.76,16.76,0,1,1,16.76-16.76A16.78,16.78,0,0,1,662.82,378.35Zm0-26.6a9.85,9.85,0,1,0,9.85,9.85A9.86,9.86,0,0,0,662.82,351.74Z" transform="translate(-559.5 -276.41)"/><path d="M662.82,345.33a16.26,16.26,0,1,0,16.26,16.26,16.28,16.28,0,0,0-16.26-16.26h0Zm0,26.6a10.35,10.35,0,1,1,10.35-10.34,10.35,10.35,0,0,1-10.35,10.34h0Zm0,0" transform="translate(-559.5 -276.41)"/></svg>