<svg id="Слой_1" data-name="Слой 1" xmlns="http://www.w3.org/2000/svg" viewBox="0 0 285.7 284.83"><title>for-7</title><path d="M719.1,502.8a63.6,63.6,0,1,1,63.6-63.6A63.67,63.67,0,0,1,719.1,502.8Zm0-111.2a47.6,47.6,0,1,0,47.6,47.6A47.65,47.65,0,0,0,719.1,391.6Z" transform="translate(-497 -217.97)"/><path d="M719.1,377.6a61.6,61.6,0,1,0,61.6,61.6,61.67,61.67,0,0,0-61.6-61.6h0Zm0,111.2a49.6,49.6,0,1,1,49.6-49.6,49.66,49.66,0,0,1-49.6,49.6h0Zm0,0" transform="translate(-497 -217.97)"/><path d="M703.49,472.52a8,8,0,0,1-6.8-12.2l31.21-50.63a8,8,0,1,1,13.62,8.4L710.3,468.71A8,8,0,0,1,703.49,472.52Z" transform="translate(-497 -217.97)"/><path d="M737.85,408.78a6,6,0,0,0-8.26,2l-31.21,50.63a6,6,0,1,0,10.21,6.3L739.81,417a6,6,0,0,0-2-8.26h0Zm0,0" transform="translate(-497 -217.97)"/><path d="M544.59,471.58a8,8,0,0,1-4.24-1.22l-0.92-.58A36,36,0,0,1,528,420.15a8,8,0,1,1,13.56,8.49,20,20,0,0,0,6.35,27.58l0.92,0.57A8,8,0,0,1,544.59,471.58Z" transform="translate(-497 -217.97)"/><path d="M547.78,458.49l-0.92-.57a22,22,0,0,1-7-30.34,6,6,0,0,0-10.17-6.37,34,34,0,0,0,10.79,46.88l0.91,0.57a6,6,0,1,0,6.37-10.17h0Zm0,0" transform="translate(-497 -217.97)"/><path d="M683.19,302.94a8,8,0,0,1-6.77-12.25,20,20,0,0,0-6.34-27.58l-0.92-.57A8,8,0,1,1,677.64,249l0.92,0.57A36.05,36.05,0,0,1,690,299.18,8,8,0,0,1,683.19,302.94Z" transform="translate(-497 -217.97)"/><path d="M670.21,260.84l0.92,0.57a22,22,0,0,1,7,30.34,6,6,0,1,0,10.17,6.37,34.05,34.05,0,0,0-10.79-46.87l-0.92-.57a6,6,0,1,0-6.37,10.17h0Zm0,0" transform="translate(-497 -217.97)"/><path d="M559.41,501.36A61.38,61.38,0,0,1,526.82,492l-0.92-.58a61.52,61.52,0,0,1-19.51-84.79l100-159.76a61.5,61.5,0,0,1,84.79-19.51l0.92,0.57a61.52,61.52,0,0,1,19.51,84.79l-100,159.76A61.22,61.22,0,0,1,559.41,501.36ZM520,415.11a45.51,45.51,0,0,0,14.44,62.74l0.92,0.58A45.51,45.51,0,0,0,598,464l45.75-73.1L565.71,342Zm132.33-37.79L698,304.22a45.52,45.52,0,0,0-14.44-62.74l-0.92-.57a45.5,45.5,0,0,0-62.74,14.44l-45.75,73.1Z" transform="translate(-497 -217.97)"/><path d="M659.91,391.53h0l50-79.88a59.52,59.52,0,0,0-18.87-82l-0.92-.57a59.5,59.5,0,0,0-82,18.88l-100,159.76a59.52,59.52,0,0,0,18.88,82l0.91,0.57a59.51,59.51,0,0,0,82-18.87ZM618.25,254.29a47.5,47.5,0,0,1,65.49-15.07l0.92,0.57a47.52,47.52,0,0,1,15.07,65.5l-46.81,74.79-81.48-51ZM599.74,465a47.51,47.51,0,0,1-65.5,15.07l-0.91-.57A47.51,47.51,0,0,1,518.26,414l46.81-74.8,81.48,51Zm0,0" transform="translate(-497 -217.97)"/></svg>