<svg id="Слой_1" data-name="Слой 1" xmlns="http://www.w3.org/2000/svg" viewBox="0 0 460.45 326.2"><title>for-6</title><path d="M246.76,593.52a13.36,13.36,0,0,1-13.34-13.34,12.92,12.92,0,0,1,3.41-8.66l-0.25-.38L492.88,381.31l0.55-.5,0.06,0a49.27,49.27,0,0,0,8.12-8l0.19-.3,0.05-.06a48,48,0,0,0,10.47-29.72A48.64,48.64,0,1,0,427,374.21l1.82,2.11-0.11.11a13.12,13.12,0,0,1,2.14,7.16,13.36,13.36,0,0,1-13.34,13.34,13.12,13.12,0,0,1-7.16-2.14l-0.17.17-1.47-1.32-0.81-.78,0-.05A75.36,75.36,0,1,1,513,399l0,0-1.21,1.1-5.13,4.19-0.1.06c-0.18.11-.31,0.21-0.44,0.31s-0.52.39-.76,0.54l-23,17,208.3,148.81-0.29.4a12.79,12.79,0,0,1,3.43,8.7,13.36,13.36,0,0,1-13.34,13.34H246.76Zm392.18-26.68L459.88,438.93l-172.7,127.9H638.95Z" transform="translate(-233.42 -267.31)"/><path d="M246.76,591.52a11.35,11.35,0,0,1-11.34-11.34,11,11,0,0,1,4-8.39l-0.12-.18L494.16,382.86l0.57-.52a51.11,51.11,0,0,0,8.5-8.44l0.2-.31a50,50,0,0,0,10.89-31,50.64,50.64,0,1,0-88.88,32.88l0.61,0.7,0,0a11.22,11.22,0,0,1,2.78,7.35,11.35,11.35,0,0,1-11.34,11.34,11.22,11.22,0,0,1-7.34-2.78l-0.06.06-0.76-.73a73.35,73.35,0,1,1,101.2,7l0,0.08-5,4.12,0,0c-0.18.12-.37,0.26-0.55,0.39s-0.44.33-.66,0.47L479,422.3l208.9,149.23-0.13.18a11,11,0,0,1,4.07,8.47,11.35,11.35,0,0,1-11.34,11.34H246.76Zm398.42-22.68L459.86,436.46,281.12,568.83H645.19Z" transform="translate(-233.42 -267.31)"/><path d="M686.43,571.9l0.1-.14L477.34,422.31l26.38-19.56c0.4-.26.81-0.61,1.21-0.86l5-4.08-0.21.05a72.23,72.23,0,1,0-99.66-7.06l0.05-.05a10.16,10.16,0,0,0,7.36,3.18,10.31,10.31,0,0,0,10.34-10.34,10.16,10.16,0,0,0-3.18-7.36l0.05-.05A51,51,0,0,1,412,342.64a51.65,51.65,0,1,1,92.18,31.57l0.05,0.05-0.25.25a51.6,51.6,0,0,1-8.62,8.57l-0.61.56L240.66,571.85l0.1,0.16a10.07,10.07,0,0,0-4.34,8.17,10.36,10.36,0,0,0,10.34,10.34H680.53a10.36,10.36,0,0,0,10.34-10.34,10.18,10.18,0,0,0-4.44-8.28h0Zm-408.35-2.07L459.85,435.23,648.31,569.83H278.09Zm0,0" transform="translate(-233.42 -267.31)"/></svg>