<svg id="Слой_1" data-name="Слой 1" xmlns="http://www.w3.org/2000/svg" viewBox="0 0 370.4 433.1"><title>for-2</title><path d="M678.4,634.2a6,6,0,0,0,6-6V602.6c0-.08,0-0.15,0-0.23v-0.2a6.1,6.1,0,0,0-.11-0.84l0-.07a5.52,5.52,0,0,0-.25-0.81l0-.09a6.29,6.29,0,0,0-.37-0.77l-0.08-.12a6.07,6.07,0,0,0-.5-0.7l0-.05a6,6,0,0,0-.58-0.59l-0.11-.09a5.71,5.71,0,0,0-.7-0.51l-0.06,0L658.8,583.68V577a6,6,0,0,0-6-6H637.91L517.72,498a25.12,25.12,0,0,0-8.9-40.32,6.4,6.4,0,0,1-3.63-6v-3.82a25.24,25.24,0,0,0,19.2-24.47V403.8h0.4a6,6,0,0,0,6-6V372.2a6,6,0,0,0-6-6H518c0-.13,0-0.27,0-0.4A18.82,18.82,0,0,0,505.2,348V258.3a6,6,0,1,0-12,0V348a18.83,18.83,0,0,0-12.8,17.81c0,0.13,0,.26,0,0.4H473.6a6,6,0,0,0-6,6v25.6a6,6,0,0,0,6,6H474v19.6a25.24,25.24,0,0,0,19.2,24.47v3.82a18.26,18.26,0,0,0,11,17.1,13.17,13.17,0,0,1,2.85,22.77l-4.77-2.89a6,6,0,0,0-6.23,0l-4.77,2.89c-0.2-.15-0.41-0.29-0.6-0.45A13.18,13.18,0,0,1,486,481a6,6,0,0,0-12,0,25.12,25.12,0,0,0,6.65,17L360.48,571H345.6a6,6,0,0,0-6,6v6.68l-22.71,13.79-0.06,0a6.16,6.16,0,0,0-.7.51l-0.11.09a5.89,5.89,0,0,0-.58.59l0,0.05a5.42,5.42,0,0,0-.5.7l-0.08.12a6,6,0,0,0-.38.77l0,0.09a5.71,5.71,0,0,0-.25.8l0,0.07a6,6,0,0,0-.11.84c0,0.07,0,.13,0,0.2s0,0.15,0,.23v25.6a6,6,0,0,0,6,6h19.6v13.6H320a6,6,0,0,0-6,6v25.6a6,6,0,0,0,6,6H678.4a6,6,0,0,0,6-6V653.8a6,6,0,0,0-6-6H658.8V634.2h19.6Zm-186-268.4a6.8,6.8,0,0,1,13.6,0c0,0.13,0,.26,0,0.4H492.38c0-.13,0-0.27,0-0.4h0Zm-12.8,12.4h39.2v13.6H479.6V378.2Zm6.4,45.2V403.8h26.4v19.6a13.2,13.2,0,1,1-26.4,0h0ZM633.2,596.6V583h1.36l12.25,7.43v6.17H633.2Zm-25.6,0V583h13.6v13.6H607.6Zm-25.6,0V583h13.6v13.6H582Zm-25.6,0V583H570v13.6H556.4Zm-25.6,0V583h13.6v13.6H530.8Zm-25.6,0V583h13.6v13.6H505.2Zm-25.6,0V583h13.6v13.6H479.6Zm-25.6,0V583h13.6v13.6H454Zm-25.6,0V583H442v13.6H428.4Zm-25.6,0V583h13.6v13.6H402.8Zm-25.6,0V583h13.6v13.6H377.2Zm-25.6,0v-6.17L363.84,583h1.35v13.6H351.6Zm140.46-91.45a25.36,25.36,0,0,0,7.18,1,26,26,0,0,0,4.48-.39,23.94,23.94,0,0,0,2.64-.64L614.79,571H383.61ZM326,608.6H672.4v13.6H326V608.6Zm281.6,39.2V634.2h13.6v13.6H607.6Zm-25.6,0V634.2h13.6v13.6H582Zm-25.6,0V634.2H570v13.6H556.4Zm-25.6,0V634.2h13.6v13.6H530.8Zm-25.6,0V634.2h13.6v13.6H505.2Zm-25.6,0V634.2h13.6v13.6H479.6Zm-25.6,0V634.2h13.6v13.6H454Zm-25.6,0V634.2H442v13.6H428.4Zm-25.6,0V634.2h13.6v13.6H402.8Zm-25.6,0V634.2h13.6v13.6H377.2Zm-25.6-13.6h13.6v13.6H351.6V634.2Zm320.8,39.2H326V659.8H672.4v13.6Zm-25.6-25.6H633.2V634.2h13.6v13.6Zm0,0" transform="translate(-314 -252.3)"/></svg>