<svg id="Слой_1" data-name="Слой 1" xmlns="http://www.w3.org/2000/svg" xmlns:xlink="http://www.w3.org/1999/xlink" viewBox="0 0 383.92 242.8"><defs><clipPath id="clip-path" transform="translate(-448 -239)"><rect x="450" y="241" width="379.92" height="238.8" style="fill:none"/></clipPath></defs><title>for-8</title><path d="M540.82,334.53a8,8,0,0,1,0-16H738.94a8,8,0,1,1,0,16H540.82Z" transform="translate(-448 -239)"/><path d="M738.94,320.53H540.82a6,6,0,0,0,0,12H738.95a6,6,0,1,0,0-12h0Zm0,0" transform="translate(-448 -239)"/><path d="M463.47,391.36a8,8,0,0,1,0-16h58.82a21.65,21.65,0,0,0-20.1-13.63H461.93a8,8,0,0,1,0-16h40.26a37.67,37.67,0,0,1,37.63,37.63,8,8,0,0,1-8,8H463.47Z" transform="translate(-448 -239)"/><path d="M502.19,347.73H461.93a6,6,0,0,0,0,12h40.26A23.68,23.68,0,0,1,525,377.36H463.47a6,6,0,0,0,0,12h68.34a6,6,0,0,0,6-6,35.67,35.67,0,0,0-35.63-35.63h0Zm0,0" transform="translate(-448 -239)"/><g style="clip-path:url(#clip-path)"><path d="M747.37,391.36a8,8,0,0,1-8-8A37.67,37.67,0,0,1,777,345.73h42.67a8,8,0,0,1,0,16H777a21.65,21.65,0,0,0-20.1,13.63h61.23a8,8,0,0,1,0,16H747.37Z" transform="translate(-448 -239)"/><path d="M777,359.73h42.67a6,6,0,0,0,0-12H777a35.67,35.67,0,0,0-35.63,35.63,6,6,0,0,0,6,6h70.76a6,6,0,0,0,0-12h-64A23.68,23.68,0,0,1,777,359.73h0Zm0,0" transform="translate(-448 -239)"/><path d="M747.66,480.84a8,8,0,0,1-8-8v-24.2H539.52v24.2a8,8,0,0,1-8,8H468.4a8,8,0,0,1-8-8v-24.2a8,8,0,0,1-8-7.6L448,354.23a46.16,46.16,0,0,1,46.35-48.5,8,8,0,0,1,2.13.29l17.73,4.89,27.66-53.14c5.4-10.37,18.79-18.5,30.48-18.5H706.79c11.69,0,25.08,8.13,30.49,18.5l27.66,53.14L782.65,306a8,8,0,0,1,2.13-.29,46.16,46.16,0,0,1,46.36,48.45L826.78,441a8,8,0,0,1-8,7.6v24.2a8,8,0,0,1-8,8H747.66Zm55.13-16v-16.2H755.66v16.2h47.13Zm-279.27,0v-16.2H476.39v16.2h47.13Zm287.66-32.2,4-79.21a30.14,30.14,0,0,0-29.35-31.68l-45.22,12.5a8,8,0,0,1-9.84-5.58,8,8,0,0,1,5.58-9.84l12.84-3.55-26.08-50.1c-2.69-5.18-10.46-9.89-16.29-9.89H572.4c-5.83,0-13.6,4.71-16.29,9.89L530,315.27l12.84,3.55a8,8,0,1,1-4.26,15.42l-45.23-12.5A30.15,30.15,0,0,0,464,353.47l4,79.17H811.18Z" transform="translate(-448 -239)"/><path d="M816.94,321.36a44.07,44.07,0,0,0-32.16-13.63,6,6,0,0,0-1.6.22l-19.28,5.32L735.5,258.7c-5.09-9.77-17.7-17.42-28.71-17.42H572.4c-11,0-23.62,7.65-28.71,17.42l-28.4,54.57L496,307.95a6,6,0,0,0-1.6-.22A44.16,44.16,0,0,0,450,354.13l4.35,86.81a6,6,0,0,0,6,5.7h2v26.2a6,6,0,0,0,6,6h63.13a6,6,0,0,0,6-6V446.6a6,6,0,0,0-12,0v20.24H474.39v-20.2h330.4v20.2H753.66V445.71a6,6,0,0,0-12,0v27.13a6,6,0,0,0,6,6h63.13a6,6,0,0,0,6-6v-26.2h2a6,6,0,0,0,6-5.7l4.36-86.85a44.08,44.08,0,0,0-12.2-32.73h0Zm0.21,32.17-4.07,81.11h-347L462,353.56a32.15,32.15,0,0,1,31.59-33.82l23.09,6.38h0l22.39,6.19a6,6,0,1,0,3.2-11.57l-15.22-4.21,27.22-52.3c3-5.84,11.48-11,18.07-11H706.79c6.59,0,15,5.13,18.07,11l27.22,52.3-15.22,4.21a6,6,0,1,0,3.2,11.57l45.51-12.58a32.15,32.15,0,0,1,31.59,33.79h0Zm0,0" transform="translate(-448 -239)"/><rect width="383.92" height="242.8" style="fill:none"/></g><path d="M706.14,441.87a8,8,0,0,1-8-8V408.6H581v25.27a8,8,0,1,1-16,0V400.6a8,8,0,0,1,8-8h133.1a8,8,0,0,1,8,8v33.27A8,8,0,0,1,706.14,441.87Z" transform="translate(-448 -239)"/><path d="M706.14,394.6H573a6,6,0,0,0-6,6v33.27a6,6,0,0,0,12,0V406.6h121.1v27.27a6,6,0,1,0,12,0V400.6a6,6,0,0,0-6-6h0Zm0,0" transform="translate(-448 -239)"/><path d="M606.32,366.53a8,8,0,0,1,0-16h66.55a8,8,0,0,1,0,16H606.32Z" transform="translate(-448 -239)"/><path d="M672.87,364.53a6,6,0,0,0,0-12H606.32a6,6,0,0,0,0,12h66.55Zm0,0" transform="translate(-448 -239)"/></svg>