<svg id="Слой_1" data-name="Слой 1" xmlns="http://www.w3.org/2000/svg" viewBox="0 0 392.96 398"><title>for-1</title><path d="M567.92,699c-19.28,0-35.56-16.65-35.56-36.36,0-20,16-36.36,35.56-36.36,19.27,0,35.56,16.65,35.56,36.36S587.2,699,567.92,699Zm0-50.16c-6.84,0-12.84,6.41-12.84,13.72,0,7.82,5.52,13.72,12.84,13.72,6.84,0,12.84-6.41,12.84-13.72S574.76,648.84,567.92,648.84Z" transform="translate(-303 -301)"/><path d="M567.92,698c-18.73,0-34.56-16.19-34.56-35.36,0-19.5,15.5-35.36,34.56-35.36,18.73,0,34.56,16.19,34.56,35.36S586.65,698,567.92,698Zm0-50.16c-7.37,0-13.84,6.88-13.84,14.72,0,8.39,6,14.72,13.84,14.72,7.37,0,13.84-6.88,13.84-14.72S575.29,647.84,567.92,647.84Z" transform="translate(-303 -301)"/><path d="M567.92,697c-18.19,0-33.56-15.73-33.56-34.36,0-18.95,15.06-34.36,33.56-34.36,18.19,0,33.56,15.73,33.56,34.36S586.11,697,567.92,697Zm0-50.16c-7.91,0-14.84,7.34-14.84,15.72,0,9,6.38,15.72,14.84,15.72,7.91,0,14.84-7.35,14.84-15.72S575.83,646.84,567.92,646.84Z" transform="translate(-303 -301)"/><path d="M567.92,629.28c-18.32,0-32.56,15-32.56,33.36S550.4,696,567.92,696s32.56-15,32.56-33.36-15-33.36-32.56-33.36h0Zm0,50c-9.2,0-15.84-7.52-15.84-16.72s7.52-16.72,15.84-16.72,15.84,7.52,15.84,16.72-7.52,16.72-15.84,16.72h0Zm0,0" transform="translate(-303 -301)"/><path d="M390.24,699c-19.27,0-35.56-16.65-35.56-36.36,0-20,16-36.36,35.56-36.36,19.28,0,35.56,16.65,35.56,36.36C425.8,682.69,409.85,699,390.24,699Zm0-50.16c-6.84,0-12.84,6.41-12.84,13.72,0,7.82,5.52,13.72,12.84,13.72,7,0,12.84-6.28,12.84-13.72C403.08,654.74,397.56,648.84,390.24,648.84Z" transform="translate(-303 -301)"/><path d="M390.24,698c-18.73,0-34.56-16.19-34.56-35.36,0-19.5,15.5-35.36,34.56-35.36,18.73,0,34.56,16.19,34.56,35.36C424.8,682.14,409.3,698,390.24,698Zm0-50.16c-7.37,0-13.84,6.88-13.84,14.72,0,8.39,5.95,14.72,13.84,14.72,7.5,0,13.84-6.74,13.84-14.72C404.08,654.17,398.13,647.84,390.24,647.84Z" transform="translate(-303 -301)"/><path d="M390.24,697c-18.19,0-33.56-15.73-33.56-34.36,0-18.95,15.05-34.36,33.56-34.36,18.19,0,33.56,15.73,33.56,34.36C423.8,681.59,408.74,697,390.24,697Zm0-50.16c-7.91,0-14.84,7.34-14.84,15.72,0,9,6.38,15.72,14.84,15.72,8,0,14.84-7.2,14.84-15.72C405.08,653.6,398.7,646.84,390.24,646.84Z" transform="translate(-303 -301)"/><path d="M390.24,629.28c-18.32,0-32.56,15-32.56,33.36s15,33.36,32.56,33.36c18.32,0,32.56-15,32.56-33.36s-15-33.36-32.56-33.36h0Zm0,50c-9.2,0-15.84-7.52-15.84-16.72s7.52-16.72,15.84-16.72c9.2,0,15.84,7.52,15.84,16.72s-7.44,16.72-15.84,16.72h0Zm0,0" transform="translate(-303 -301)"/><path d="M372.72,622.28c-25.05,0-44.68-20.36-44.68-46.36,0-21.65,14.09-39.74,34.41-44.39L303.16,355.84a3,3,0,0,1,2.84-4H631l12.39-48.62a3,3,0,0,1,2.91-2.26H693a3,3,0,0,1,3,3v16.64a3,3,0,0,1-3,3h-31L603.3,550.75a3,3,0,0,1-2.9,2.25H372.72c-12.15,0-22,10.64-22,23.72,0,13.3,9.68,23.72,22,23.72H599.6a3,3,0,0,1,3,3v15.84a3,3,0,0,1-3,3H372.72Zm212.87-91.92,39.36-155.84H333.53l52.23,155.84H585.58Z" transform="translate(-303 -301)"/><path d="M372.72,621.28c-24.49,0-43.68-19.92-43.68-45.36,0-21.56,14.46-39.55,34.72-43.65L304.1,355.52a2,2,0,0,1,1.9-2.64H631.8l12.58-49.37a2,2,0,0,1,1.94-1.51H693a2,2,0,0,1,2,2v16.64a2,2,0,0,1-2,2H661.15L602.33,550.5a2,2,0,0,1-1.94,1.5H372.72c-12.7,0-23,11.09-23,24.72,0,13.86,10.12,24.72,23,24.72H599.6a2,2,0,0,1,2,2v15.84a2,2,0,0,1-2,2H372.72Zm213.65-89.92,39.87-157.84H332.14L385,531.36H586.36Z" transform="translate(-303 -301)"/><path d="M372.72,620.28c-23.93,0-42.68-19.49-42.68-44.36,0-21.47,14.66-39.32,35-42.88l-60-177.84a1,1,0,0,1,.95-1.32H632.58l12.77-50.13a1,1,0,0,1,1-.75H693a1,1,0,0,1,1,1v16.64a1,1,0,0,1-1,1H660.38l-59,228.61a1,1,0,0,1-1,.75H372.72c-13.25,0-24,11.54-24,25.72,0,14.42,10.56,25.72,24,25.72H599.6a1,1,0,0,1,1,1v15.84a1,1,0,0,1-1,1H372.72Zm214.42-87.92,40.37-159.84H330.75l53.57,159.84H587.14Z" transform="translate(-303 -301)"/><path d="M646.32,304l-13,50.88H306l60.4,179c-20.24,3-35.36,20.08-35.36,42.08,0,24.16,18.32,43.36,41.68,43.36H599.6V603.44H372.72c-14.16,0-25-11.68-25-26.72s11.68-26.72,25-26.72H600.4l59.2-229.36H693V304H646.32Zm-58.4,229.36H383.6L329.36,371.52H628.8Zm0,0" transform="translate(-303 -301)"/><rect x="105.92" y="106.72" width="22.72" height="100.24" rx="3" ry="3"/><rect x="106.92" y="107.72" width="20.72" height="98.24" rx="2" ry="2"/><rect x="107.92" y="108.72" width="18.72" height="96.24" rx="1" ry="1"/><rect x="108.92" y="109.72" width="16.72" height="94.24"/><rect x="165.2" y="106.72" width="22.72" height="100.24" rx="3" ry="3"/><rect x="166.2" y="107.72" width="20.72" height="98.24" rx="2" ry="2"/><rect x="167.2" y="108.72" width="18.72" height="96.24" rx="1" ry="1"/><rect x="168.2" y="109.72" width="16.72" height="94.24"/><rect x="224.4" y="106.72" width="22.72" height="100.24" rx="3" ry="3"/><rect x="225.4" y="107.72" width="20.72" height="98.24" rx="2" ry="2"/><rect x="226.4" y="108.72" width="18.72" height="96.24" rx="1" ry="1"/><rect x="227.4" y="109.72" width="16.72" height="94.24"/></svg>