<svg id="logo" xmlns="http://www.w3.org/2000/svg" viewBox="0 0 26.7 37.63"><title>logo</title><path d="M79.63,112.67a6,6,0,0,0,.5-2.38V109.4a11,11,0,0,0-5.62-9.61c-0.89-3.22-2.77-7.1-5.42-7.1s-4.53,3.88-5.42,7.1a11,11,0,0,0-5.62,9.61v0.89a6,6,0,0,0,.5,2.38A6.13,6.13,0,0,0,61.88,124H76.3A6.13,6.13,0,0,0,79.63,112.67Zm-17.75,9.17a4,4,0,0,1-2.16-7.41A6,6,0,0,0,64,116.28h10.1a6,6,0,0,0,4.32-1.85,4,4,0,0,1-2.16,7.41H61.88Zm-1.71-11.55V109.4a8.89,8.89,0,0,1,2.92-6.59c0,0.16,0,.31,0,0.44a3.15,3.15,0,0,0,.62,2,7.09,7.09,0,0,0-1.41,4.26A2.49,2.49,0,0,0,64.76,112H68v2.12H64a3.84,3.84,0,0,1-1.64-.37,3.89,3.89,0,0,1-1.91-2A3.85,3.85,0,0,1,60.17,110.29Zm6-11.54c0.79-2.1,1.92-3.94,2.89-3.94s2.1,1.85,2.89,3.94c0.15,0.41.29,0.82,0.42,1.24s0.24,0.87.33,1.28a9.7,9.7,0,0,1,.26,2,2.27,2.27,0,0,1-.05.53,0.49,0.49,0,0,1-.06.16,1,1,0,0,1-.46.06,11.5,11.5,0,0,1-1.21-.1l-0.68-.07c-0.43,0-.89-0.08-1.38-0.08a15,15,0,0,0-1.56.09l-0.51.06a12.35,12.35,0,0,1-1.25.1c-0.37,0-.53,0-0.59-0.2a2,2,0,0,1,0-.55,9.7,9.7,0,0,1,.26-2c0.09-.42.2-0.85,0.33-1.28S66,99.15,66.2,98.75ZM78,109.4v0.89a3.87,3.87,0,0,1-.93,2.51,3.89,3.89,0,0,1-1.3,1,3.84,3.84,0,0,1-1.64.37h-4V112h3.27a2.49,2.49,0,0,0,2.48-2.48V109.4a6.76,6.76,0,0,0-1.39-4.11,3.12,3.12,0,0,0,.61-2c0-.13,0-0.28,0-0.44A8.89,8.89,0,0,1,78,109.4Zm-12.19-3.27a13.66,13.66,0,0,0,1.49-.12,16.22,16.22,0,0,1,1.83-.14A15.82,15.82,0,0,1,71,106a13.13,13.13,0,0,0,1.45.11h0a4.67,4.67,0,0,1,1.34,3.27v0.17a0.36,0.36,0,0,1-.36.36H64.76a0.36,0.36,0,0,1-.36-0.36,5,5,0,0,1,1.39-3.44h0Z" transform="translate(-55.74 -92.69)" style="fill:#f16923"/><path d="M76.17,117.22H62a1.06,1.06,0,0,0,0,2.12H76.17A1.06,1.06,0,0,0,76.17,117.22Z" transform="translate(-55.74 -92.69)" style="fill:#f16923"/><ellipse cx="13.33" cy="36.84" rx="6.85" ry="0.79" style="fill:#4b2f27;opacity:0.7000000000000001"/></svg>