<svg id="logo" xmlns="http://www.w3.org/2000/svg" viewBox="0 0 76.27 10.09"><title>logo-text</title><path d="M109.44,116.67h-7.67a0.21,0.21,0,0,1-.21-0.27l2-8.35a1.9,1.9,0,0,1,.31-0.72,1.41,1.41,0,0,1,.47-0.4,1.92,1.92,0,0,1,.59-0.19,4.52,4.52,0,0,1,.68-0.05,4.29,4.29,0,0,1,.67.05,1.87,1.87,0,0,1,.59.2,1.41,1.41,0,0,1,.47.41,2,2,0,0,1,.32.74l2,8.31A0.21,0.21,0,0,1,109.44,116.67Zm-5.37-2.35-0.13.61a0.21,0.21,0,0,0,.21.26h3.11a0.21,0.21,0,0,0,.21-0.26l-0.13-.61v0l-1.22-5.69a0.73,0.73,0,0,0-.09-0.23,0.33,0.33,0,0,0-.3-0.14,0.41,0.41,0,0,0-.4.37l-1.24,5.68v0Z" transform="translate(-90.99 -106.7)" style="fill:#3f2222"/><path d="M114.65,116.79l-0.85,0-0.83,0-0.71-.06-0.51-.07a0.31,0.31,0,0,1-.19-0.08,0.32,0.32,0,0,1,0-.2v-9.14a0.29,0.29,0,0,1,0-.2,0.3,0.3,0,0,1,.18-0.07l0.53-.08,0.71-.06,0.82,0,0.86,0a5.71,5.71,0,0,1,1.79.26,3.26,3.26,0,0,1,2.12,2.06,5.32,5.32,0,0,1,.29,1.84v1.78a5.35,5.35,0,0,1-.29,1.84,3.41,3.41,0,0,1-.82,1.29,3.36,3.36,0,0,1-1.3.76A5.77,5.77,0,0,1,114.65,116.79Zm0-8.48H114.1l-0.45,0a0.21,0.21,0,0,0-.19.21v6.4a0.21,0.21,0,0,0,.19.21l0.45,0h0.55a3.45,3.45,0,0,0,.9-0.11,1.63,1.63,0,0,0,.73-0.42,2,2,0,0,0,.47-0.8,4.07,4.07,0,0,0,.16-1.22v-1.77a4.09,4.09,0,0,0-.16-1.21,1.93,1.93,0,0,0-.47-0.81,1.68,1.68,0,0,0-.73-0.42A3.37,3.37,0,0,0,114.65,108.31Z" transform="translate(-90.99 -106.7)" style="fill:#3f2222"/><path d="M135.87,116.79a5,5,0,0,1-1.54-.23,3.11,3.11,0,0,1-1.22-.72,3.47,3.47,0,0,1-.82-1.3,5.64,5.64,0,0,1-.3-2v-1.65a5.63,5.63,0,0,1,.3-2,3.43,3.43,0,0,1,.82-1.3,3.16,3.16,0,0,1,1.22-.72,5.19,5.19,0,0,1,3.07,0,3.16,3.16,0,0,1,1.22.72,3.45,3.45,0,0,1,.82,1.3,5.67,5.67,0,0,1,.3,2v1.65a5.67,5.67,0,0,1-.3,2,3.48,3.48,0,0,1-.82,1.3,3.1,3.1,0,0,1-1.21.72A5,5,0,0,1,135.87,116.79Zm0-8.46a1.7,1.7,0,0,0-1.45.64,3.25,3.25,0,0,0-.46,1.94v1.65a3.25,3.25,0,0,0,.46,1.94,1.7,1.7,0,0,0,1.45.64,1.72,1.72,0,0,0,1.46-.64,3.21,3.21,0,0,0,.46-1.94v-1.65a3.21,3.21,0,0,0-.46-1.94A1.72,1.72,0,0,0,135.87,108.33Z" transform="translate(-90.99 -106.7)" style="fill:#3f2222"/><path d="M99.84,106.89a0.29,0.29,0,0,0-.22-0.07H98.33a0.45,0.45,0,0,0-.43.27L95.79,111a0.43,0.43,0,0,1-.34.3,0.42,0.42,0,0,1-.34-0.29L93,107.08a0.43,0.43,0,0,0-.42-0.26h-1.3a0.31,0.31,0,0,0-.22.07,0.23,0.23,0,0,0-.07.19v9.38a0.21,0.21,0,0,0,.21.21h1.44a0.21,0.21,0,0,0,.21-0.21v-5.63a0.29,0.29,0,0,1,.29-0.31,0.34,0.34,0,0,1,.29.2L94.66,113a0.25,0.25,0,0,0,.24.13H96a0.23,0.23,0,0,0,.23-0.13l1.25-2.3a0.35,0.35,0,0,1,.29-0.19,0.29,0.29,0,0,1,.28.32s0,4.57,0,5.62a0.21,0.21,0,0,0,.21.21H99.7a0.21,0.21,0,0,0,.21-0.21v-9.36A0.25,0.25,0,0,0,99.84,106.89Z" transform="translate(-90.99 -106.7)" style="fill:#3f2222"/><path d="M129.79,106.89a0.29,0.29,0,0,0-.22-0.07h-1.29a0.45,0.45,0,0,0-.43.27L125.74,111a0.43,0.43,0,0,1-.34.3,0.42,0.42,0,0,1-.34-0.29l-2.11-3.94a0.43,0.43,0,0,0-.42-0.26h-1.3a0.31,0.31,0,0,0-.22.07,0.23,0.23,0,0,0-.07.19v9.38a0.21,0.21,0,0,0,.21.21h1.44a0.21,0.21,0,0,0,.21-0.21v-5.63a0.29,0.29,0,0,1,.29-0.31,0.34,0.34,0,0,1,.29.2l1.24,2.27a0.25,0.25,0,0,0,.24.13H126a0.23,0.23,0,0,0,.23-0.13l1.25-2.3a0.35,0.35,0,0,1,.29-0.19,0.29,0.29,0,0,1,.28.32s0,4.57,0,5.62a0.21,0.21,0,0,0,.21.21h1.43a0.21,0.21,0,0,0,.21-0.21v-9.36A0.25,0.25,0,0,0,129.79,106.89Z" transform="translate(-90.99 -106.7)" style="fill:#3f2222"/><rect x="147.9" y="116.67" width="0.13" transform="translate(-72.25 147.1) rotate(-84.96)" style="fill:#3f2222"/><path d="M147.82,112.72a0.29,0.29,0,0,1-.28.33,0.38,0.38,0,0,1-.3-0.21l-3.28-5.7a0.92,0.92,0,0,0-.2-0.27,0.3,0.3,0,0,0-.2-0.06h-1.4a0.31,0.31,0,0,0-.32.31v9.33a0.21,0.21,0,0,0,.21.21h1.35a0.21,0.21,0,0,0,.21-0.21V111a0.29,0.29,0,0,1,.3-0.32h0a0.42,0.42,0,0,1,.29.22l3.15,5.44a0.64,0.64,0,0,0,.24.27,0.71,0.71,0,0,0,.3.06h1.36a0.32,0.32,0,0,0,.23-0.09,0.29,0.29,0,0,0,.09-0.22V107a0.21,0.21,0,0,0-.21-0.21H148a0.21,0.21,0,0,0-.21.21v5.7Z" transform="translate(-90.99 -106.7)" style="fill:#3f2222"/><path d="M156.24,111.51l3.07-4.36a0.21,0.21,0,0,0-.17-0.33h-1.67a0.2,0.2,0,0,0-.17.09l-2.86,4.21h-0.57V107a0.21,0.21,0,0,0-.21-0.21h-1.52a0.21,0.21,0,0,0-.21.21v9.44a0.21,0.21,0,0,0,.21.21h1.53a0.21,0.21,0,0,0,.21-0.21v-4.28h0.49l2.71,4.39a0.21,0.21,0,0,0,.18.1h1.86a0.21,0.21,0,0,0,.17-0.32l-3.06-4.6A0.21,0.21,0,0,1,156.24,111.51Z" transform="translate(-90.99 -106.7)" style="fill:#3f2222"/><path d="M166.89,112.55a3.38,3.38,0,0,0-1.39-1.19l-1.77-1-0.47-.28a1.72,1.72,0,0,1-.32-0.25,0.88,0.88,0,0,1-.19-0.28,0.92,0.92,0,0,1-.06-0.34,0.85,0.85,0,0,1,.33-0.73,1.63,1.63,0,0,1,1-.22l0.8,0,0.88,0,1,0.06a0.21,0.21,0,0,0,.22-0.2l0.06-1.06a0.21,0.21,0,0,0-.16-0.21l-0.41-.08-0.73-.1-0.83-.07-0.8,0a5.69,5.69,0,0,0-1.62.2,2.7,2.7,0,0,0-1,.53,1.84,1.84,0,0,0-.53.77,3,3,0,0,0-.16,1,3.17,3.17,0,0,0,.07.68,2.29,2.29,0,0,0,.24.62,2.63,2.63,0,0,0,.46.59,4,4,0,0,0,.76.56l1.9,1.13a3.21,3.21,0,0,1,.78.58,1,1,0,0,1,.24.66,1.15,1.15,0,0,1-.33.89,1.65,1.65,0,0,1-1.11.29l-0.57,0-0.74,0L161.3,115a0.21,0.21,0,0,0-.22.21v1.08a0.21,0.21,0,0,0,.16.2,10.15,10.15,0,0,0,1,.19,11.37,11.37,0,0,0,1.43.08,4.94,4.94,0,0,0,1.7-.25,3.16,3.16,0,0,0,1.1-.65,2.28,2.28,0,0,0,.59-0.89,3,3,0,0,0,.18-1A2.87,2.87,0,0,0,166.89,112.55Z" transform="translate(-90.99 -106.7)" style="fill:#3f2222"/></svg>