<svg id="Слой_1" data-name="Слой 1" xmlns="http://www.w3.org/2000/svg" viewBox="0 0 386.64 294.24"><title>mail</title><path d="M395.44,103H103.28A47.32,47.32,0,0,0,56,150.28V350a47.32,47.32,0,0,0,47.28,47.28H395.36A47.32,47.32,0,0,0,442.64,350V150.36A47.27,47.27,0,0,0,395.44,103h0Zm25.68,247a25.71,25.71,0,0,1-25.68,25.68H103.28A25.71,25.71,0,0,1,77.6,350V150.36a25.71,25.71,0,0,1,25.68-25.68H395.36A25.71,25.71,0,0,1,421,150.36V350h0.08Zm0,0" transform="translate(-56 -103)"/><path d="M299.84,247.64l94.56-84.8a10.82,10.82,0,1,0-14.48-16.08l-130.4,117-25.44-22.72a0.41,0.41,0,0,1-.16-0.24,16.43,16.43,0,0,0-1.76-1.52L118.64,146.68a10.82,10.82,0,1,0-14.4,16.16l95.68,85.52-95.28,89.2a10.84,10.84,0,0,0-.48,15.28,11.06,11.06,0,0,0,7.92,3.44,10.83,10.83,0,0,0,7.36-2.88l96.72-90.48,26.24,23.44a10.78,10.78,0,0,0,14.4-.08l27-24.16,96.16,91.36a10.82,10.82,0,0,0,15.28-.4,10.84,10.84,0,0,0-.4-15.28Zm0,0" transform="translate(-56 -103)"/></svg>