<svg id="Слой_1" data-name="Слой 1" xmlns="http://www.w3.org/2000/svg" viewBox="0 0 383.5 383.5"><title>question</title><path d="M640,168.25c-105.9,0-191.75,85.85-191.75,191.75S534.1,551.75,640,551.75,831.75,465.9,831.75,360,745.9,168.25,640,168.25Zm-7.06,308.54c-17.41,0-29.24-12.81-29.24-29.89,0-17.74,12.16-29.9,29.24-29.9,17.74,0,29.24,12.16,29.57,29.9C662.5,464,651,476.79,632.94,476.79Zm39.75-122.54c-11.83,13.47-17.08,26.28-16.75,41.07v5.91H612.24l-0.33-8.54c-1-16.75,4.6-33.84,19.38-51.25,10.51-12.81,19.05-23.65,19.05-34.49,0-11.5-7.56-19.38-24-19.71-10.84,0-24,3.94-32.52,9.86l-11.17-35.81c12.16-6.9,31.54-13.47,54.86-13.47,43.36,0,63.4,24,63.4,51.25C700.94,324,685.17,340.45,672.69,354.25Z" transform="translate(-448.25 -168.25)" style="fill:#f15758"/></svg>