<svg id="Слой_1" data-name="Слой 1" xmlns="http://www.w3.org/2000/svg" viewBox="0 0 391.92 372"><title>report-calendar</title><path d="M543.84,354.44a19.4,19.4,0,1,1,19.4-19.4A19.42,19.42,0,0,1,543.84,354.44Z" transform="translate(-444 -174)"/><path d="M560.24,335a16.4,16.4,0,1,1-16.4-16.4,16.4,16.4,0,0,1,16.4,16.4h0Zm0,0" transform="translate(-444 -174)"/><path d="M639.6,354.44A19.4,19.4,0,1,1,659,335,19.42,19.42,0,0,1,639.6,354.44Z" transform="translate(-444 -174)"/><path d="M656,335a16.4,16.4,0,1,1-16.4-16.4A16.4,16.4,0,0,1,656,335h0Zm0,0" transform="translate(-444 -174)"/><path d="M735.28,354.44a19.4,19.4,0,1,1,19.4-19.4A19.42,19.42,0,0,1,735.28,354.44Z" transform="translate(-444 -174)"/><path d="M751.68,335a16.4,16.4,0,1,1-16.4-16.4,16.4,16.4,0,0,1,16.4,16.4h0Zm0,0" transform="translate(-444 -174)"/><path d="M543.84,465.16a19.4,19.4,0,1,1,19.4-19.4A19.42,19.42,0,0,1,543.84,465.16Z" transform="translate(-444 -174)"/><path d="M560.24,445.76a16.4,16.4,0,1,1-16.4-16.4,16.4,16.4,0,0,1,16.4,16.4h0Zm0,0" transform="translate(-444 -174)"/><path d="M639.6,465.16a19.4,19.4,0,1,1,19.4-19.4A19.42,19.42,0,0,1,639.6,465.16Z" transform="translate(-444 -174)"/><path d="M656,445.76a16.4,16.4,0,1,1-16.4-16.4,16.4,16.4,0,0,1,16.4,16.4h0Zm0,0" transform="translate(-444 -174)"/><path d="M735.28,465.16a19.4,19.4,0,1,1,19.4-19.4A19.42,19.42,0,0,1,735.28,465.16Z" transform="translate(-444 -174)"/><path d="M751.68,445.76a16.4,16.4,0,1,1-16.4-16.4,16.4,16.4,0,0,1,16.4,16.4h0Zm0,0" transform="translate(-444 -174)"/><path d="M819.36,208.08H780.24V190.64a16.64,16.64,0,1,0-33.28,0v17.44H532.24V190.64a16.64,16.64,0,1,0-33.28,0v17.44H460.64A16.73,16.73,0,0,0,444,224.72V529.36A16.73,16.73,0,0,0,460.64,546H818.48c9.12,0,16.64-6.64,17.44-16.64V224.72a16.62,16.62,0,0,0-16.56-16.64h0ZM802.72,513.52H476.48V241.44H499v12.48a16.64,16.64,0,0,0,33.28,0V241.44H747v12.48a16.73,16.73,0,0,0,16.64,16.64c8.32,0,15.84-7.52,16.64-16.64V241.44h22.48V513.52Zm0,0" transform="translate(-444 -174)"/></svg>