<svg id="Слой_1" data-name="Слой 1" xmlns="http://www.w3.org/2000/svg" xmlns:xlink="http://www.w3.org/1999/xlink" viewBox="0 0 391.92 392.08"><defs><clipPath id="clip-path" transform="translate(-444 -164.8)"><rect x="444" y="164" width="391.92" height="393.84" style="fill:none"/></clipPath></defs><title>report-stats</title><g style="clip-path:url(#clip-path)"><path d="M819.36,164.8H460.64a16.64,16.64,0,1,0,0,33.28h5.84v253a16.73,16.73,0,0,0,16.64,16.64H613.36l-39.52,64c-5,7.52-2.48,17.44,5,22.48s17.44,2.48,22.48-5l42.56-68.88L687,549.29c5,7.52,15,10,22.48,5s10-15,5-22.48l-39.52-64H796.08a17.94,17.94,0,0,0,17.44-15.84V198.09h5c9.12,0,17.44-7.52,17.44-16.64a16.66,16.66,0,0,0-16.56-16.64h0ZM780.24,435.29H499V198.09H780.24v237.2Zm0,0" transform="translate(-444 -164.8)"/></g><path d="M538.88,396.16c11,8.88,19.12,2.48,22.48-.8l53.28-56.56L643,362.09a16.69,16.69,0,0,0,22.48-.8l48.24-49.12c5.84-6.64,5.84-17.44-.8-23.28s-17.44-5.84-23.28.8L653,328l-28.32-24.16c-6.64-5-16.64-5-22.48,1.68L538.08,373c-5.84,6.56-5.84,17.36.8,23.2h0Zm0,0" transform="translate(-444 -164.8)"/></svg>