<svg id="Слой_1" data-name="Слой 1" xmlns="http://www.w3.org/2000/svg" viewBox="0 0 370.27 370.44"><title>report-dynamic</title><path d="M795.93,230.18l-26.4-26.4a59.34,59.34,0,0,0-83.84,0l-60.16,60.16a59.35,59.35,0,0,0,0,83.84h0a2.15,2.15,0,0,1,0,3l-19.59,19.92-1.6-1.6a59.35,59.35,0,0,0-83.84,0L460.34,429.3a59.34,59.34,0,0,0,0,83.84l26.4,26.4a59.35,59.35,0,0,0,83.84,0l60.16-60.16a59.28,59.28,0,0,0,0-83.84L629.22,394l19.6-19.93a2.15,2.15,0,0,1,3,0l0.08,0.08a59.34,59.34,0,0,0,83.84,0L795.93,314a59.35,59.35,0,0,0,0-83.84h0ZM607.54,418.74a26.6,26.6,0,0,1,0,37.52l-60.16,60.16a26.6,26.6,0,0,1-37.52,0L483.46,490a26.61,26.61,0,0,1,0-37.52l60.16-60.16a26.61,26.61,0,0,1,37.52,0l1.6,1.6L556.66,420a16.19,16.19,0,0,0,0,23.36,16.06,16.06,0,0,0,23.36,0L606.1,417.3ZM772.73,290.9l-60.16,60.16a26.6,26.6,0,0,1-37.52,0L675,351a2.15,2.15,0,0,1,0-3l24.56-24.56a16.19,16.19,0,0,0,0-23.36c-6.64-6.72-16.64-6.64-23.36,0l-24.56,24.57a2.15,2.15,0,0,1-3,0h0a26.61,26.61,0,0,1,0-37.52l60.16-60.16a26.61,26.61,0,0,1,37.52,0l26.4,26.4a26.48,26.48,0,0,1,.08,37.6h0Zm0,0" transform="translate(-443 -186.44)"/></svg>