<svg id="Слой_1" data-name="Слой 1" xmlns="http://www.w3.org/2000/svg" viewBox="0 0 392.08 391.92"><title>report-phone</title><path d="M747.32,164a87.78,87.78,0,0,0-87.68,87.76,86.79,86.79,0,0,0,22.24,58.4c-26.64,31.84-57.44,62.08-93.52,91.68a87.73,87.73,0,1,0-57.44,154.08c28.08,0,46.48-13.36,46.48-13.36,0.64-.24,95.28-55.68,141-108.4,32.64-37.68,66.64-77.68,100.64-131.84A87.79,87.79,0,0,0,747.32,164h0ZM792,283.68c-0.16.24-.4,0.56-0.56,0.8C735,374.64,674.6,447.92,563.48,512.88c-16.8,7.6-27.92,10.32-32.64,10.32a55,55,0,0,1,0-109.92c17,0,32.08,8.16,43.2,21,8.64,10.08,19.68,5.44,23.12,2.72,47.68-37.84,86.88-76.48,120-118.16,2.72-3.44,6.72-15.68-3-23.28-13.68-10.72-21.76-26.48-21.76-43.84a54.88,54.88,0,1,1,109.76,0A54.39,54.39,0,0,1,792,283.68h0Zm0,0" transform="translate(-443 -164)"/><path d="M459.64,323.92c8.32,0,15.84-7.52,15.84-15.84,0-60,49.12-109.12,109-109.12a16.64,16.64,0,0,0,0-33.28A141.44,141.44,0,0,0,443,307.28a16.73,16.73,0,0,0,16.64,16.64h0Zm0,0" transform="translate(-443 -164)"/><path d="M584.52,240.64A66.78,66.78,0,0,0,518,307.28a16.68,16.68,0,0,0,16.64,16.64c8.32,0,15.84-7.52,15.84-15.84a34.35,34.35,0,0,1,34.16-34.16,16.64,16.64,0,1,0-.08-33.28h0Zm0,0" transform="translate(-443 -164)"/></svg>