<svg id="Слой_1" data-name="Слой 1" xmlns="http://www.w3.org/2000/svg" viewBox="0 0 80 80"><title>service-5</title><path d="M640,400a40,40,0,1,1,40-40,40,40,0,0,1-40,40h0Zm0-75.2A35.2,35.2,0,1,0,675.2,360,35.24,35.24,0,0,0,640,324.8h0Zm0,0" transform="translate(-600 -320)"/><path d="M640,336a24,24,0,1,0,24,24,24,24,0,0,0-24-24h0Zm1.44,45.07v-3.79h-2.88v3.79a21.15,21.15,0,0,1-19.63-19.63h3.79v-2.88h-3.79a21.15,21.15,0,0,1,19.63-19.62v3.79h2.88v-3.79a21.15,21.15,0,0,1,19.62,19.62h-3.79v2.88h3.79a21.15,21.15,0,0,1-19.62,19.63h0Zm0,0" transform="translate(-600 -320)"/><path d="M629.94,364.57a19.48,19.48,0,0,1,4.73-2.11l0.69-.25,0,0a6.24,6.24,0,0,0,.92-0.38,1.15,1.15,0,0,0,0-.15,14.19,14.19,0,0,1-2.2-7.42,5.59,5.59,0,0,1,2-4.72,4.3,4.3,0,0,0-1.93-.39c-1.91,0-3.46.76-3.46,3.5a9.49,9.49,0,0,0,1.7,5.34c0,0.1,0,.2,0,0.3a1.1,1.1,0,0,1-.42.75,5.38,5.38,0,0,1-.94.39,16,16,0,0,0-3.86,1.62,3.65,3.65,0,0,0-1.25,1.88,6.79,6.79,0,0,0-.32,2.37h3.6a1.45,1.45,0,0,1,.73-0.71h0Zm0,0" transform="translate(-600 -320)" style="fill:#020201"/><path d="M652.83,361.05a16.22,16.22,0,0,0-3.86-1.63A5.37,5.37,0,0,1,648,359a1.07,1.07,0,0,1-.42-0.75,3,3,0,0,1-.05-0.45,9.63,9.63,0,0,0,1.59-5.2c0-2.74-1.55-3.5-3.46-3.5a4.23,4.23,0,0,0-2,.4,5.61,5.61,0,0,1,1.94,4.71,14.21,14.21,0,0,1-2.09,7.25,0.4,0.4,0,0,1,0,.07,1.79,1.79,0,0,0,.08.27,6.55,6.55,0,0,0,1,.41l0.55,0.18a20.12,20.12,0,0,1,4.85,2.22,1.26,1.26,0,0,1,.7.67h3.64a6.79,6.79,0,0,0-.32-2.37,3.62,3.62,0,0,0-1.25-1.86h0Zm0,0" transform="translate(-600 -320)" style="fill:#020201"/><path d="M649.43,365.48a21.53,21.53,0,0,0-5.15-2.18,6.73,6.73,0,0,1-1.25-.54,1.42,1.42,0,0,1-.56-1,5.31,5.31,0,0,1-.07-0.6,12.81,12.81,0,0,0,2.13-6.94c0-3.65-2.06-4.67-4.61-4.67s-4.61,1-4.61,4.67a12.67,12.67,0,0,0,2.27,7.13c0,0.14,0,.27-0.05.41a1.45,1.45,0,0,1-.55,1,7.17,7.17,0,0,1-1.25.52,21.37,21.37,0,0,0-5.15,2.16,4.8,4.8,0,0,0-1.67,2.48,10.09,10.09,0,0,0-.42,3.12h23a10.2,10.2,0,0,0-.42-3.12,4.71,4.71,0,0,0-1.67-2.43h0Zm0,0" transform="translate(-600 -320)"/></svg>