<svg id="Слой_1" data-name="Слой 1" xmlns="http://www.w3.org/2000/svg" xmlns:xlink="http://www.w3.org/1999/xlink" viewBox="0 0 80 70.4"><defs><clipPath id="clip-path" transform="translate(-600 -325)"><rect x="600" y="325" width="79.92" height="71" style="fill:none"/></clipPath></defs><title>service-4</title><path d="M670,356.49c-0.43-1.56-4.42-1.7-6-1.16l-17.53,5.83-20.29-8.1L624,355.34l8.68,10.42c-5.6,1.93-15.84,5.51-17.71,6.13-1.6.53,10.35,2.23,13.09,1.77,0,0,21.05-6.87,30.36-10l7.18-2.39c1.6-.53,4.86-3.12,4.39-4.82h0Zm0,0" transform="translate(-600 -325)"/><g style="clip-path:url(#clip-path)"><path d="M611.63,364.48L610,366l4.31,5,6.25-2.2Zm0,0" transform="translate(-600 -325)"/><path d="M675.2,325H604.8a4.8,4.8,0,0,0-4.8,4.8v60.8a4.8,4.8,0,0,0,4.8,4.8h70.4a4.8,4.8,0,0,0,4.8-4.8V329.8a4.8,4.8,0,0,0-4.8-4.8h0Zm-12,3.2a3.2,3.2,0,1,1-3.2,3.2,3.2,3.2,0,0,1,3.2-3.2h0Zm-8.8,0a3.2,3.2,0,1,1-3.2,3.2,3.21,3.21,0,0,1,3.2-3.2h0Zm20.8,62.4H604.8V337.8h70.4v52.8Zm-3.2-56a3.2,3.2,0,1,1,3.2-3.2,3.2,3.2,0,0,1-3.2,3.2h0Zm0,0" transform="translate(-600 -325)"/></g></svg>