<svg id="Слой_1" data-name="Слой 1" xmlns="http://www.w3.org/2000/svg" xmlns:xlink="http://www.w3.org/1999/xlink" viewBox="0 0 93.88 84.99"><defs><clipPath id="clip-path" transform="translate(-452.5 -458.5)"><rect x="453" y="459" width="92.88" height="83.99" style="fill:none"/></clipPath></defs><title>service-6</title><g style="clip-path:url(#clip-path)"><path d="M455,488.74a2.5,2.5,0,0,1-1.91-4.11l21.28-25.24a2.51,2.51,0,0,1,1.91-.89h46.17a2.5,2.5,0,0,1,1.91.89l21.28,25.24a2.5,2.5,0,0,1-1.91,4.11H455Zm83.35-5L521.29,463.5H477.44l-17.07,20.24h78Z" transform="translate(-452.5 -458.5)"/><path d="M543.73,488.24H455a2,2,0,0,1-1.53-3.29l21.28-25.24a2,2,0,0,1,1.53-.71h46.17a2,2,0,0,1,1.53.71l21.28,25.24a2,2,0,0,1-1.53,3.29h0Zm-84.43-4h80.13L521.52,463H477.21Zm0,0" transform="translate(-452.5 -458.5)"/><rect width="93.88" height="84.99" style="fill:none"/></g><polygon points="0.26 28.97 4.09 25.75 46.87 76.54 89.64 25.75 93.47 28.97 46.87 84.3 0.26 28.97"/><path d="M499.37,542l-45.9-54.5,3.06-2.58,42.84,50.87,42.84-50.87,3.06,2.58Zm0,0" transform="translate(-452.5 -458.5)"/><path d="M499.37,541.42a2.5,2.5,0,0,1-2.36-1.67l-18.58-52.69a2.49,2.49,0,0,1,.35-2.31l18.57-25.24a2.5,2.5,0,0,1,4,0L520,484.76a2.5,2.5,0,0,1,.34,2.31l-18.58,52.69A2.5,2.5,0,0,1,499.37,541.42Zm0-10,15.78-44.75-15.78-21.44-15.78,21.44Z" transform="translate(-452.5 -458.5)"/><path d="M499.37,540.92a2,2,0,0,1-1.89-1.33L478.9,486.9a2,2,0,0,1,.28-1.85l18.57-25.24a2,2,0,0,1,3.22,0l18.58,25.24a2,2,0,0,1,.27,1.85l-18.58,52.69a2,2,0,0,1-1.88,1.33h0ZM483,486.57l16.34,46.34,16.34-46.34-16.34-22.2Zm0,0" transform="translate(-452.5 -458.5)"/></svg>